<?xml version="1.0" encoding="UTF-8"?>
<svg id="Layer_2" data-name="Layer 2" xmlns="http://www.w3.org/2000/svg" viewBox="0 0 154.07 154.06">
  <defs>
    <style>
      .cls-1 {
        fill: #ac5a00;
      }
    </style>
  </defs>
  <g id="Layer_1-2" data-name="Layer 1">
    <g>
      <path class="cls-1" d="M82.98,27.78c2.03.24,3.47-.41,4.21-1.88-.38.27-.92-.06-1.33.12,0,0,0,0,0,.01h0s0,0,0,.02c.49,1.13.61,1-.33.58.23-.4.31-.54.33-.58,0-.01,0-.02-.01-.03,0,0,.01,0,.02,0-.45-1.22-1.96,0-2.19-.89-.12.02-.26.03-.4.02-.29-.03-.51-.14-.68-.31.07.3.14.64.22,1.04-.35.55-.7,1.09-1.04,1.62.37.12.77.22,1.22.27Z"/>
      <path class="cls-1" d="M40.96,24.97c.12-.19.11-.16.28-.17.02.43.06.57-.04.57l1.63,2.71c.2-.05.4-.13.6-.27.32-.21.93.02,1.51.05-.22.85.9,1.34.34,2.29.31.02.23.14.56-.62q.22-.52.95-.14c-.05.41-.75.6-.46,1.15.02.04-.47.31-.39.31,0,0,0,0,0,0,0,0,0,0,0,.02.11.14.23.28.39.47-.2.1-.36.17-.71.34.23-.57.31-.75.32-.81,0,0-.01-.01-.02-.02,0,0,.01,0,.02,0-.48-.08-.99-.42-1.36.11l1.33,2.22c1.26,2.1,3.44,2.62,5.62,1.31s2.72-3.47,1.46-5.57l-1.41-2.34c-.18-.04-.33-.27-.48-.54.05,0,.1-.02.14-.03l-.3-.5c-.6.19-.48.17-.59-.36.13-.02.24-.04.34-.06l-3.8-6.33-2.66,1.6,6.1,10.15c.31.52.12,1.07-.37,1.36-.49.29-1.07.21-1.39-.31l-4.23-7.03c-.1-.03-.19-.07-.29-.1.06-.04.12-.08.17-.11l-1.75-2.91-.63.38c.42.06.53.04.73.54.02.04-.15.24-.19.22-.19-.07-.41-.14-.54-.29-.08-.08-.13-.26-.16-.38l-1.87,1.13,1.17,1.95ZM46.44,33.06c-.51-.25-.39-.13-.41-.49.6.12.49.03.41.49ZM46.37,22.98c.17-.31.03-.3.63.02-.17.29-.03.32-.63-.02ZM47.98,24.62c.02-.36-.05-.27.34-.35-.07.42.02.33-.34.35ZM48.59,27.06c-.08-.41-.14-.74-.2-1.06.92.42.93.45.2,1.06ZM47.39,33.32c.29-.32.53-.34.73.23-.3.01-.52.03-.76.04.01-.14,0-.23.03-.26ZM45.09,26.12c.2.59.33,1.01-.22,1.23-.8.33-1.37.07-2.09-.98.79-.09,1.53-.17,2.31-.25ZM43.33,25.39c-.4-.15-.35.01-.27-.53.39.24.29.12.27.53ZM43.05,24.61c-.48-.23-.32-.05-.69-.65.07-.06.13-.13.2-.19.73.79.66.62.5.84ZM42.23,22.73c.59.49.54.36.35.57-.53-.54-.48-.43-.35-.57ZM41.83,24.75c.11-.49.4-.25.8-.13-.26.37-.42.6-.71,1.02-.05-.45-.14-.69-.09-.9ZM40.83,23.87c-.47-.04-.36.1-.49-.41.35-.04.23-.18.49.41Z"/>
      <path class="cls-1" d="M89.8,78.59c.27-.71-.18-1.11-.88-.94-1.14.28-2.29.87-3.47,1.09-.29.03-.66-.32-.64-.62,1.9-7.45,4.03-14.84,5.95-22.28.04-.17.38-1.41.31-1.44-.08-.04-.29.43-.32.5-.27.56-.52,1.16-.77,1.73-1.44,3.21-2.86,6.43-4.28,9.65.03.14.07.29.08.45-.11.06-.24.14-.37.21-2.37,5.38-4.73,10.76-7.12,16.12.1-.04.2-.05.25-.02.14.08.28.43.22.52-.13.18-.3.34-.48.49.32.36.96,0,1.48-.15,1.16-.33,2.34-.7,3.5-1.04.27-.08.62-.24.95-.34-.04-.3.03-.64.22-1.01.18.34.35.66.53.99.16.07.28.22.34.48l-.03.12c.11.22.23.44.36.68-.18-.06-.35-.12-.5-.19l-1.83,6.7c-.07.25,0,.62.31.43.16-.1.53-.83.65-1.06.77-1.43,1.49-2.89,2.19-4.35-.19.03-.37.13-.53.35-.15.21-.45.07-.74-.33-.11.06-.23.1-.4.17,0-.19-.01-.28-.02-.38.09,0,.18,0,.28,0-.02-.04-.04-.07-.06-.11.61.21,1.14-.2,1.67-.12.57-1.19,1.14-2.37,1.73-3.55-.04-.35-.08-.68-.12-1.03.23,0,.44-.01.66-.01.29-.56.57-1.13.87-1.68ZM86.58,64.3c.13.03.2,0,.23.08.02,0,.04,0,.07-.01.06.3.12.34-.03.36,0,.22,0,.57.02,1.12-.82-.63-.55-1.09-.29-1.54ZM83.05,76.38c-.24.96-.14.83-.37.78.16-.98.05-.84.37-.78ZM81.5,82.11c-.2-.37-.34-.63-.51-.95-.26.03-.56.06-1.08.12.55-.48.86-.86,1.51-.74.56.1,1.47-1.15,2.32-.33q-1.73.69-2.24,1.9ZM86.05,83.87c-.46.01-.57-.24-.41-.82.28.26.46.43.69.64-.13.08-.2.17-.28.18ZM86.97,80.6c-.55-.32-.43-.18-.31-.66.66.3.61.14.31.66ZM87.82,78.88c-.11.11-.28.15-.54.27,0-.26-.04-.44.03-.51.08-.09.28-.14.38-.1.08.03.17.3.13.34Z"/>
      <path class="cls-1" d="M58.39,148.54c.26-.21.5-.42.72-.62-.28-.07-.56-.14-.84-.22,0,.05.02.1.02.16.07.56.1.64.09.68,0,0,0,0,0,0Z"/>
      <path class="cls-1" d="M79.36,23.04c-.21,1.78.21,3.08,1.25,3.87-.04-.22-.08-.43-.22-.61.27-.42.51-.79.75-1.17-.67-.91-.67-.92.67-2.08.15.11.29.31.42.61,0-.09,0-.18.02-.27l.17-1.39-.79-.1c-.16.14-.32.27-.47.4-.27-.24-.41-.36-.47-.52l-1.17-.14-.17,1.38Z"/>
      <path class="cls-1" d="M74.06,13.88l-.56-2.27-4.43.38-1.09,15.89,3.1-.27.15-3.64,2.21-.19.77,3.56,3.1-.27-3.18-12.9s-.02.08-.03.13c-.51-.21-.38-.09-.38-.54.16.06.26.09.33.11ZM69.28,18.31c-.71-.78.41-1.32,1.37-1.99.58.66.17.73-1.37,1.99ZM73.72,14.68c-.17.36-.34.72-.49,1.05-.86-.06-.49-.68-.64-1.08-.41.21-.67.1-.92-.11.05.56.13,1.13.21,1.52l.24,1.2c.19-.05.12-.07.5.26-.22.14-.34.18-.42.17l.64,3.24-1.48.13.1-4.96c.01-.45-.02-1.14-.07-1.77h.05c-.09-.1-.18-.19-.28-.28,1.07-.39,1.74.31,2.57.63Z"/>
      <path class="cls-1" d="M106.78,66.51l-1.54-1.65-.32,2.23-.96.45c.33.55.31.91.21,1.14l.56.27c-.03-.05-.07-.11-.1-.17.5.01.65,0,.71.03-.13-.68-.48-.89-.04-1.29.02-.02-.19-.31-.34-.54.5-.08.97-.16,1.62-.28-.16,1.06-.32,2.05-.47,3.07-.69.21-.49-.49-.73-.74-.17.17-.32.2-.45.11l.26,2.13,1.57-1.62,2.21.43-1.06-1.99,1.09-1.97-2.22.39Z"/>
      <path class="cls-1" d="M84.9,65.06c.21-.46.42-.92.62-1.39,1.45-3.27,2.86-6.55,4.34-9.8.9-1.36,2.73-.55,2.41,1.02l-.86,3.21c.16-.03.44-.06.93-.13-.29.68-.69.45-1.02.49l-.96,3.6c.13-.02.15.09.47.58-.27.19-.18.28-.57-.2l-3.93,14.73,2.7-.81c1.22-.1,2.22.89,2.09,2.12-.03.32-.33.99-.64,1.64.47-.13.93-.27,1.5.04.1-.24.2-.48.29-.71.55-1.45.14-2.76-.78-3.57-.09.12-.18.24-.27.37-.05-.04-.16-.11-.16-.13.11-.21.17-.33.22-.41-.75-.56-1.78-.81-2.89-.6-.08.02-.08.06-.11-.05l3.16-11.79c-.27-.08-.2-.07-.12-.34.08.03.14.05.19.06l2.1-7.82c.63-3.82-4.29-4.66-5.36-1.06l-4.56,10.35c.45.14.88.31,1.23.57Z"/>
      <path class="cls-1" d="M103.56,142.38s-.08-.11-.11-.18c-.18.18-.36.32-.53.43.21-.08.43-.16.64-.24Z"/>
      <path class="cls-1" d="M131.9,33.56c-.31-.14-.41-.3-.43-.48-.08.12-.16.23-.24.34,0,.09-.01.19-.02.29-.09.01-.17.02-.26.04-.14.13-.28.24-.44.31.17.22.35.43.52.65,0-.23-.01-.45-.02-.7.82.41.95.69.41,1.19,4.12,5.34,7.49,11.37,9.94,17.98.41.29.82.6,1.37.72-.35.4-.63.62-.86.73.21.6.42,1.2.62,1.82,1.77,5.63,2.78,11.33,3.07,16.97.07-.04.16-.08.26-.14.39-.23.51-.05.56.47-.39-.07-.65-.11-.81-.13.08,1.63.1,3.25.07,4.86.02.07.03.13.05.2-.02-.01-.03-.03-.05-.04-.14,5.83-1.04,11.56-2.62,17.08.54.47.98,1.49,1.17,1.83-.27,0-.59.02-.85.03-.19-.34-.37-.68-.56-1.02-.53,1.76-1.11,3.49-1.78,5.2.19.31.33.54.53.85-.3.06-.55.2-.68.12-.08-.04-.13-.09-.17-.14-4.81,11.92-12.92,22.44-23.58,30.11.05-.01.11-.03.19-.06-.3.72-.17.57-.52.55.02-.13.02-.22.03-.28-2.06,1.46-4.2,2.84-6.44,4.08-.21.23-.49.34-.78.42-.47.25-.95.5-1.42.74-.02.04-.05.08-.07.13-.19.52-.71.77-1.33.66-.02-.03-.04-.05-.07-.08-1.46.7-2.94,1.35-4.47,1.95-.02.26.06.6.16,1.15.28-.03.63-.07,1.06-.12.04-.51.44-1.2,1.17-1.63-.07.69-.12,1.24-.17,1.79,4.22-1.77,8.19-3.93,11.88-6.41-.5-.12-.93-.23-1.43-.36q.57-.67,2.11-.23c0,.05-.01.09-.02.14,24.87-17.09,36.88-49.05,27.36-79.3-2.68-8.54-6.86-16.21-12.14-22.81-.1.17-.19.33-.28.5ZM103.3,141.28c-.38-.11-.61-.01-.35-.63.01-.03.33,0,.35.05.05.14.01.32,0,.58ZM129.7,123.77c-.29-.18-.29-.03-.11-.57.36.29.36.13.11.57ZM146.04,85.99c-.23-.35-.2-.21.06-.53.2.42.22.28-.06.53ZM140.86,50.04c-.08.41-.01.6-.64.25.47-.4.31-.31.64-.25ZM133.33,34.72c-.57.2-.41.19-.59,0,.62-.2.51-.23.59,0Z"/>
      <path class="cls-1" d="M114.88,105.11c.45-.2.82-.37,1.17-.53.08.06.15.12.23.17.18-.25.36-.5.53-.76-.28,0-.58,0-.91,0-.15-.24-.26-.44-.36-.6-.14.09-.36.16-.69.28-.03-.04-.05-.08-.07-.11-.19.27-.38.53-.58.79.28.17.52.41.69.77Z"/>
      <polygon class="cls-1" points="113.02 65.97 113.4 69.13 115.61 66.84 118.73 67.45 117.24 64.64 118.79 61.86 115.66 62.41 113.49 60.09 113.04 63.23 110.16 64.58 113.02 65.97"/>
      <path class="cls-1" d="M84.2,6.86c0,.05.02.11.03.17.03-.05.05-.1.07-.16-.03,0-.07,0-.1-.01Z"/>
      <path class="cls-1" d="M127.47,27.73c-.22-.22-.44-.44-.66-.65-.1.04-.15.05-.19.01,0,.02,0,.04,0,.04.01,0,.02,0,.02,0,0,0,0,0,0,0,0,0,0,0,0,0,0,0,0,0-.01,0,.24.45.37.71.38.82.06-.08.2-.14.46-.24Z"/>
      <path class="cls-1" d="M80.43,15.25c-.02.21-.04.4-.04.59.09-.06.19-.11.33-.15-.11.26-.2.47-.3.71.13,1.31.87,2.48,2.61,4.44,1.44,1.61,1.68,2.05,1.58,2.92-.02.18-.06.33-.1.48.74-.02,1.84.39,2.84,1.3.17-.43.29-.91.35-1.45.23-1.9-.37-3.01-2.67-5.71-1.38-1.63-1.58-2.13-1.5-2.8.07-.61.34-.99.74-1.06-.15-.08-.1-.09.21-.63.28.2.32.08-.02.62.02,0,.04,0,.05,0,.56.07.8.54.7,1.38l-.11.92,2.89.35.14-1.16c.29-2.42-.86-3.82-3.35-4.12-.19-.02-.37-.03-.55-.04-.19.41.05.88.08,1.32,0,.1-.07.2-.17.52-.46-.89-.91-1.13-.82-1.79-1.65.24-2.63,1.37-2.87,3.36ZM80.74,15.27c-.06-.6-.14-.48.36-.49-.13.61-.04.51-.36.49ZM81.85,16.43c-.03-.54-.08-.45.17-.47.04.54.07.44-.17.47ZM82.14,16.65c.27-.26.14-.31.58.13-.22.28-.09.3-.58-.13ZM87.02,21.3c-.18.75-.07.63-.44.57.04-.74-.07-.63.44-.57Z"/>
      <path class="cls-1" d="M83.07,8.7c7.72.69,15.2,2.69,22.16,5.83.05-.03.1-.07.15-.1.09.1.19.2.29.31,5.27,2.43,10.23,5.51,14.74,9.18,0-.08,0-.16,0-.25.22-.05.43-.09.71-.15.02.33-.03.62-.13.88.2.17.4.34.59.5.24-.2.43-.47.55-.84.19.48.03.82-.21,1.13,1.63,1.41,3.2,2.89,4.69,4.46.17-.1.37-.18.63-.17.4,0,.81-.43,1.24-.69-.21-.23-.43-.45-.64-.67-.27.16-.57.27-.81.52-.05-.32-.1-.48-.07-.6-.11.01-.47-.22-1.1-.57.54-.23.71-.3.76-.33,0,0,0,0,0-.01-.26-.08-.53-.15-1.03-.3.31-.11.52-.18.73-.26-1.27-1.24-2.59-2.43-3.94-3.56-.22-.05-.43-.1-.64-.09.33.78.33.65.17.75-.87-.85-.8-.53-.29-1.29-7.1-5.77-15.27-10.12-24.01-12.8.02.34.1.24-1.27.47.29-.28.51-.53.73-.63-1.7-.51-3.42-.96-5.16-1.34.11.06.24.15.41.26-.41.13-.72.24-1.14.37.18-.42.27-.64.4-.7-1.99-.42-4.01-.76-6.04-1.01-.56.14-.92.47-1.42.24-.04.98-.75,1.3-1.03,1.45ZM116.95,19.68c.36.46.26.4.08.51-.09-.15-.18-.29-.27-.44.06-.03.17-.09.18-.07ZM100.4,12.23c-.61-.17-.79-.58-.93-1.3.58.38,1.18.46.93,1.3ZM97.6,10.37c.05.15.1.3.14.45,0,0-.15.07-.16.06-.28-.48-.23-.4.02-.51ZM95.12,9.26c.1-.02.2,0,.35,0-.04.14-.07.23-.1.33-.09-.04-.19-.07-.26-.13-.03-.03,0-.19.01-.19Z"/>
      <path class="cls-1" d="M128.14,31.28c.15.17.3.34.45.51.41-.24.77-.46,1.24-.74.1,1.3-.32,1.48.77,1.61.33.04.49.17.57.35.09,0,.19.02.29.03,0-.21.1-.43.16-.68-.9-1.09-1.82-2.15-2.78-3.18.13.25.09.53-.13.88-.23.36-.39.77-.58,1.23ZM129.09,29.96c.11.42.65.75.05,1.21q-.6-.7-.05-1.21Z"/>
      <path class="cls-1" d="M86.3,153.5c.47-.06.94-.12,1.4-.19-.3-.22-.4-.58-.38-1.01.23-.1.46-.21.89-.4-.44-.24-.74-.41-1.04-.57-.66.64-.82,1.38-.87,2.17Z"/>
      <path class="cls-1" d="M78.38,65.52c.08-.4.42-.71,1.05-.91-.43-.37-.86-.74-1.29-1.12-.23-.2-.46-.41-.69-.63-.63-.04-1.22-.09-1.79.21.57.53,1.14,1.06,1.72,1.57.33.29.67.58,1,.87ZM77.34,63.71c.12-.03.29,0,.37.09.05.06.02.31-.04.34-.1.05-.25-.01-.48-.04.07-.19.09-.38.15-.39Z"/>
      <path class="cls-1" d="M81.19,66.17c-.1-.09-.2-.18-.3-.26-.02.04-.04.08-.07.13-.31.45-.67.65-1,.76.22.19.45.39.67.58.21-.47.46-.85.69-1.2Z"/>
      <path class="cls-1" d="M88.5,153.2c.21-.03.42-.07.63-.1,0,0,0,0,.01-.01-.08-.12-.16-.25-.26-.4-.2.12-.29.34-.39.52Z"/>
      <path class="cls-1" d="M82.18,68.82c.04-.1.1-.21.2-.32.46.24.44.58.3.76.09.08.18.15.26.23.21-.49.42-.97.64-1.45-.66-.03-1.07-.92-.04-1.33.12.2.24.4.36.61.13-.29.25-.58.38-.87-.12-.12-.27-.2-.49-.25-.23-.04-.4-.37-.58-.66l-.69,1.57-.15.11c-.16-.15-.32-.29-.48-.43-.38.19-.8.41-1.3.66.53.46,1.06.92,1.59,1.37Z"/>
      <path class="cls-1" d="M88.07,31.64c-.19.2-.33.35-.46.48.14.03.28.07.42.1.01-.17.02-.35.04-.58Z"/>
      <path class="cls-1" d="M100.95,141.86c.07-.35.13-.5.1-.58-.3.11-.61.22-.91.33.32.1.54.17.81.25Z"/>
      <path class="cls-1" d="M125.48,61.95c.02.06-.23.32-.36.33-.13,0-.38-.18-.39-.3-.02-.26,0-.43.01-.57,0,0-.01-.01-.02-.02,0,0,.02,0,.02-.01.05-.31.15-.35-.05-.48l-.17.03-.23-.24c-.11-.05-.23-.12-.38-.2,0-.1-.01-.15,0-.2l-.94-1.01-.32,2.23-2.05.95,1.24.61c.15-.12.18-.19.18.09l.61.3.27,2.24,1.57-1.62h.01c1.07-1.19,1.11.47,2.1.24l-.96-1.8,1.09-1.97-.83.15c-.28.37-.68.68-.43,1.26ZM123.94,62.12c-.28-.33-.49-.58-.78-.91q.97,0,.78.91Z"/>
      <path class="cls-1" d="M102.13,131.14c-.29.09-.58.18-.96.3.37-.8.46-.97.87-.7l-2.14-9.29-2.88,1.16.92,3.52-2.06.83-1.77-3.18-2.88,1.16,8.14,13.69,4.12-1.65-1.34-5.83ZM94.62,129.76c-.34.03-.19.18-.75-.98,1.04.25.93-.06.75.98ZM100.43,125.45c-.6.5-.41.42-.72.25.31-.44.14-.34.72-.25ZM99.15,124.17s.28.13.56.27c-.21.25-.34.46-.53.59-.04.03-.39-.22-.37-.27.06-.21.19-.42.34-.58ZM98.51,134.22c-.58.29-.47.08-.59-.33.26.03.42.02.57.07.04.01.06.25.02.27ZM100.01,133.74c.12.44.35,1.08.59,1.67l-.25.1c-.24-.59-.52-1.22-.73-1.62l-1.33-2.5c.07.3-.12.56-.46.85-.21-.34-.37-.62-.57-.95.24-.14.46-.27.7-.41.06.06.11.11.15.16l-.82-1.54.71-.28c-.08-.04-.16-.07-.25-.1.17-.52.36-1.06.49-1.47-.4-.36-.74-.66-1.14-1.02q.81-.33,1.97.78c-.42.57-.29.39-.47.75-.03.87.92.1,1.08.79.08.33.6.56,1.01.9-.56.27-.12.44-1.85-.28l1.17,4.16Z"/>
      <path class="cls-1" d="M74.83,134.09v.33c.03-.12.03-.23,0-.33Z"/>
      <path class="cls-1" d="M91.26,21.96l.72.21c-.72-.5-.63-.35-.35-.9.48.53.36.32.52.95l2.41.7.38-1.3-3.3-.96-.38,1.3Z"/>
      <path class="cls-1" d="M79.5,142.44l4.24-.16-.56-14.67c-1.11.11-1.64-.55-1.52-.91.01-.03.02-.06.03-.08l-2.8.11c-1.96.07-3.29,1.19-3.84,3.1.02,0,.04,0,.07,0-.03.03-.07.06-.1.09-.2.75-.3,1.61-.26,2.59v.28c.43.03.81.19,1.18.62-.67.74-.97,1.06-1.1,1.2l.09,2.37c.14,3.55,1.81,5.57,4.56,5.46ZM82.93,130.65c.44.33.43.2.14.56-.42-.34-.35-.19-.14-.56ZM81.8,127.74q.09.64-.55.43c.21-.16.37-.29.55-.43ZM82.87,134.42c.18.68-.34.92-.57.9-.53-.06-1.21.18-1.65-.47.78-.15,1.49-.28,2.22-.42ZM80.15,129.59l.16,4.12c.08-.06.15-.12.24-.19.04.61.04.8-.22.79l.06,1.62c.11.1.2.2.24.32.18.49.08.8-.19,1.08l.08,2.15-.44.02c-1.28.05-1.98-.85-2.05-2.65l-.17-4.46c-.07-1.8.56-2.75,1.84-2.8l.44-.02ZM78.17,129.38c.17-.45.48-.42,1.09-.13-1.44,1.63-1.68,1.76-2.36,1.14.53-.22,1.04-.4,1.27-1.02Z"/>
      <rect class="cls-1" x="87.57" y="125.48" width="3.11" height="15.73" transform="translate(-25.88 21.55) rotate(-12.05)"/>
      <path class="cls-1" d="M86.37,37.63c-.27-.12-.14-.19-.79.47.21.05.43.09.64.15.04-.15.09-.34.15-.62Z"/>
      <path class="cls-1" d="M74.49,146.55c.67-.03.26.82.88.9.05,0,.1.04.14.09,3.56.08,7.15-.11,10.74-.59-.1-.12-.19-.24-.28-.36q1.08-.7,1.73-.31c-.15.18-.29.35-.43.52,2.41-.36,4.83-.83,7.24-1.45-.07-.1-.15-.2-.23-.31.61-.28,1.07-.23,1.47-.03.82-.23,1.63-.46,2.45-.72,1.36-.43,2.7-.91,4.02-1.41-.55.08-.94-.16-.98-.42,0-.03,0-.05,0-.08-.34.11-.61.32-.66.93-.35-.23-.25.04-.54-1.68-.8.28-1.6.56-2.41.81-7.64,2.4-15.38,3.38-22.96,3.11-.08.41-.15.8-.79.85-.42-.19-.68-.51-.88-.93-2.47-.15-4.92-.43-7.34-.84-.26.24-.47.65-.3,1.4-.85-.43-.72-.98-.65-1.5-.05-.03-.09-.06-.14-.1-.32-.06-.65-.12-.97-.19.13.21.27.4.48.53-.62.52-1.07,0-1.6.02-.02-.28-.05-.54-.07-.8-8.63-1.9-16.81-5.45-24.07-10.41-.05.05-.09.09-.15.15-.16-.17-.28-.35-.39-.52-2.04-1.42-4-2.95-5.88-4.58.02.04.05.09.08.12-.11.38-.16.71-.29,1-.13.29-.37.54-.48.83,11.96,10.19,27.15,16.25,43.08,16.88-.05-.19.06-.4.2-.95ZM93.36,144.27c.29.22.26.1.12.5-.33-.21-.33-.07-.12-.5ZM48.07,140.78c-.06-.03-.05-.36.04-.46.08-.08.31-.03.77-.05-.12.31-.1.87-.81.51ZM55.5,143.5c-.17-.25-.39-.44-.37-.58.07-.51.41-.53.97-.25-.22.31-.38.53-.6.84Z"/>
      <path class="cls-1" d="M83.14,126.56l-.77.03c.19.07.45.16.78.29v-.32Z"/>
      <path class="cls-1" d="M92.78,31.61c-.08-.03-.16-.06-.24-.09,0,.08,0,.17-.02.28.12-.09.19-.15.25-.2Z"/>
      <path class="cls-1" d="M87.14,32s-.03-.07-.04-.1c-.06.02-.1.04-.15.06.06.01.13.03.19.04Z"/>
      <path class="cls-1" d="M31.24,89.84l-1.54-1.65-.32,2.23-2.05.95,2.03.99.27,2.24,1.57-1.62,2.21.43-1.06-1.99,1.09-1.97-2.22.39ZM30.96,90.65c-.5-.6-.46-.46-.31-.64.65.49.6.34.31.64Z"/>
      <path class="cls-1" d="M122.51,114.33l-1.41,1.66c.27.87.26,1.17-.27,1.42l.49.42,2.22-2.62-1.03-.88Z"/>
      <path class="cls-1" d="M102.88,68.04l.74.36c.01-.26.13-.53.27-.83l-1.01.47Z"/>
      <polygon class="cls-1" points="92.4 94.92 92.4 94.91 92.4 94.91 92.4 94.92"/>
      <path class="cls-1" d="M97.83,93.15s0,.03.01.04h.04s-.04-.03-.06-.04Z"/>
      <path class="cls-1" d="M92.7,94.65c-.09.08-.19.16-.31.26,0,0,0,0,0,0,0,0,.02,0,.02,0h0s0,0,0,0c0,0,0,0,0,0,0,0,.02.02.03.03l.86-.28s-.03-.07-.04-.1c-.17.03-.35.05-.54.08Z"/>
      <path class="cls-1" d="M31.77,69s-.06,0-.09-.01c0,.01,0,.03,0,.04l.09-.03Z"/>
      <path class="cls-1" d="M44.8,29.14c-.35.21-.87-.02-1.2.21l.3.5c.89-.07,1.11-.08.9-.71Z"/>
      <path class="cls-1" d="M46.3,37.78l-1.95-2.16-2.41,2.17-8.58-9.54-2.31,2.08,10.52,11.7,4.72-4.24ZM33.66,29.55c.52.17.43.1.37.33-.51-.18-.45-.1-.37-.33ZM32.71,31.46q.42-.27.64.39c-.2-.12-.41-.25-.64-.39ZM33.19,30.96c-.27-.4-.55-.73-.13-1.16.66.04.47.73.84,1.01.28.27,1.14-.41,1.08.63-.71.19-1.32.22-1.8-.48ZM42.12,39.28c-.12.62.07.5-.6.61,0-.49-.18-.36.6-.61Z"/>
      <path class="cls-1" d="M70.46,3.98c-.04.08-.08.15-.1.21.07,0,.13-.01.2-.02-.04-.07-.07-.15-.08-.19,0,0,0,0,0,0,0,0,0,0-.01,0Z"/>
      <path class="cls-1" d="M63.77,134.37l-.97-.27c-.24.18-.54.28-.98.23-.24-.03-.51.22-.77.35-.18-.26-.23-.09.29-.79-.16-.11-.32-.21-.5-.33l-.39-.11-.36,1.3,3.31.92.36-1.3Z"/>
      <path class="cls-1" d="M151.53,59.45c-.1-.4.07-.6.31-.78,0-.04-.02-.08-.03-.12-.81-.2-1.52-.53-2.09-1.24.21-.67.61-1.14,1.18-1.47-.15-.25-.1-.42.03-.55-.13-.46-.27-.91-.41-1.37-1.97-6.27-4.68-12.11-7.99-17.45,0,.13,0,.27-.06.33-.64.54-.88-.07-.86-.14.08-.35.17-.7.28-1.07-.25.08-.5.17-.59.43-2.52-.85-1.22-.11.09-1.34-.13-.19-.26-.38-.38-.57-.12-.07-.24-.15-.36-.23.04-.04.09-.08.13-.12-3.6-5.3-7.82-10.07-12.52-14.24-.16.18-.31.35-.47.53-.47-.59-.57-.73-.26-1.17C114.76,7.83,98.55,1.14,81.49.13c-.04.21-.09.42-.2.63-.13.28-.17.62-.7.5.16-.38-.15-.86.32-1.17-.3-.02-.6-.02-.9-.04-.11.23-.25.54-.46.98-.62-.23-.62-.59-.53-.98-.03-.01-.06-.02-.09-.03-.17,0-.33,0-.5-.01-.33.8-.29.86.41,1.71-.07.29-.15.58-.23.88.03.08.03.11-.04.16-.04.15-.08.3-.12.46-.1-.1-.22-.18-.32-.27-.03.01-.05.02-.08.03-.02-.06-.03-.1-.05-.14-.07-.07-.14-.14-.18-.22-.63-1.21-1.05-1.37-2.14-.69.05-.94.35-1.54.7-1.93-1.62.01-3.25.08-4.88.2.1.42.21.85.31,1.26-.98.4-1.32-.52-1.99-.56-.05-.19-.09-.37-.14-.55-1.2.12-2.41.25-3.61.43-.04.02-.11.03-.19.03-4,.59-8,1.49-11.97,2.74-3.97,1.25-7.76,2.79-11.37,4.59,0,.18-.07.36-.24.56-.14-.07-.29-.14-.42-.22-.94.48-1.87.99-2.79,1.51-.18.14-.36.26-.55.31-1.61.93-3.19,1.91-4.72,2.95-.04.19-.11.45-.2.82-.08-.2-.16-.38-.22-.54-5.7,3.92-10.78,8.55-15.15,13.73.22.03.5-.05,1.02-.21.39.29.78.58,1.24.93-.28.13-.53.33-.79.35-1.36.12-1.67.45-1.46,1.71-.7-.33-1.12-.73-1.38-1.13-1.07,1.35-2.1,2.73-3.08,4.15.86.13,1.71.25,2.55.38,0,1.06-.98,1.02-1.28,1.63-.49-.07-.93-.14-1.38-.2-.46.81-.55.96-1.47.56-1.54,2.4-2.94,4.88-4.21,7.43.16.14.31.26.47.4-.41.06-.51.07-.58-.19-.33.67-.64,1.34-.95,2.01.32-.01.22,0,.47.49-.42-.05-.58-.05-.64-.1-.28.63-.56,1.27-.83,1.91.05.49-.16.82-.39.97-1.03,2.56-1.92,5.17-2.67,7.83.11.09.23.17.34.26.01,0-.07.17-.09.17-.11-.03-.22-.07-.34-.11-.29,1.05-.57,2.1-.82,3.17.02-.01.03-.02.05-.04.24.32.29.23-.16.53-.5,2.19-.89,4.41-1.2,6.64.1-.07.26-.04.39-.06-.1.19-.14.32-.22.4-.02.02-.15-.01-.21-.05-.1.79-.19,1.57-.27,2.37.01,0,.03-.01.05-.02.03.06.07.12.1.17.02,0,.04,0,.06,0,.01,0,.02-.01.03-.02,0,0,0,.01,0,.02.08,0,.15.01.24.02-.13.22-.18.39-.28.43-.02,0-.04.02-.06.02-.06.21-.12.32-.23.32-.31,3.51-.38,7.07-.19,10.64.42.23.59.45.05.85.04.64.09,1.28.15,1.92.07-.01.14-.02.18.01.62.34.83.92.77,1.7-.26,0-.5,0-.78,0,.04.37.08.74.12,1.12.02,0,.03,0,.05,0-.02,0-.03.02-.05.03.24,1.93.57,3.86.96,5.79.02-.08.03-.16.05-.24.54.8.93,1.42.45,2.37-.01,0-.02,0-.03-.01.31,1.31.65,2.62,1.03,3.93.22.13.41.24.65.38-.2.1-.36.17-.47.21.1.34.2.68.31,1.02,7.91,25.14,27.59,43.38,51.07,50.56-.91-1.15,1-1.81.96-2.91,0-.17.5-.39.8-.52.04-.02.09-.03.14-.04-9.68-2.85-18.71-7.66-26.46-14.14-.09.17-.13.39-.07.68-.48.13-.88.23-1.24.33-.28-.29-.75-.72-.72-.77.38-.5-.06-1.22.28-1.75-.76-.67-1.51-1.36-2.24-2.07-.02,0-.04,0-.07,0,0-.02.01-.03.02-.05-1.5-1.45-2.94-2.98-4.31-4.56,0,.25-.05.58-.14,1.04-.88-.2-.8-.95-.98-1.55.25-.04.45-.07.61-.07-1.33-1.57-2.6-3.2-3.8-4.88-.52.1-.68-.11-.61-.63.07,0,.12,0,.18,0-.25-.36-.5-.71-.74-1.07-.08,0-.16,0-.25.01,0-.12.02-.23.02-.34-.39-.59-.77-1.18-1.14-1.79-.04.17-.07.34-.13.51-.43-.39-.45,0-.44-1.46-2.91-4.84-5.3-10.09-7.07-15.71-.33-1.06-.64-2.13-.92-3.19-1.26-.48-1.37-.72-1.11-1.44.29.29.56.57.92.71-.45-1.78-.84-3.57-1.15-5.36-.21.38-.36.33-1.07.02-.24.24-.29.89-.93.44.17-.44.32-.83.51-1.32.45.12.92.23,1.4.36-.2-1.19-.38-2.39-.52-3.58-.03.03-.05.06-.06.07,0,0,.01.02.02.02-.01,0-.02,0-.03,0-.22.74-.23.74-1.31.73.02-.46.2-.61.43-.66-.38-.72-.1-1.01.38-1.19.39.23.42,0-.26,1.17.25-.02.53.02.75-.04,0,0,0-.01,0-.02h0s0,0,0-.01c-.12-.19-.36-.43-.31-.56.06-.15.16-.23.28-.24-.61-5.66-.54-11.3.15-16.81,0-.1,0-.19.01-.3,0,0,.01,0,.02.01,1.97-15.25,8.71-29.52,19.15-40.7-.12-.27-.07-.62.3-.94.07.15.13.28.19.42,3.45-3.63,7.29-6.92,11.48-9.81-.16-.11-.25-.07-.89-.04.15-1.07.12-1.61.63-1.79.15-.05.63.29.68.78.02.24.03.48.04.75,5.73-3.88,12.1-7,19.03-9.18,1.97-.62,3.96-1.15,5.94-1.59-.15-.3-.28-.6-.41-.87-.15.21-.29.41-.46.65-.14-.49-.22-.8-.4-1.42.18.04.34.07.48.1-.04-.05-.07-.11-.11-.16-.36-.47-.83-.85-.71-1.67.44.21.79.37,1.21.57-.47.6-.49.36.2,1.09.35-.15.67-.28,1.11-.47.08.58.13,1.01.21,1.59-.33.2-.63.38-.95.56,1.57-.35,3.14-.65,4.72-.89.03-.1.07-.2.14-.31.03.1.05.19.07.28,1.31-.2,2.61-.35,3.92-.47-.06-.1-.13-.23-.23-.41.15-.15.03-.17.63.17,0,0,0,0,0-.02v.02s0-.04,0,0c.12-.08.22-.12.31-.13-.12-.07-.27-.17-.48-.29.63-.28.82-.05.99.21-.1.19-.09.29-.19.26,0,.03,0,.07,0,.1.18-.01.35-.04.53-.05.18-.22.35-.43.52-.63,0,.23.07.42.18.58,3.06-.2,6.1-.19,9.11,0,.07-.18.16-.42.3-.75.42.31.86.54,1.24.85,3.64.3,7.24.87,10.76,1.71.08-.07.16-.15.24-.21.57.21,1.29.26,1.63.65.01.01.02.03.03.04,4.33,1.15,8.53,2.69,12.56,4.59-.06-.07-.13-.15-.2-.24q-.24-.32.29-.97c.41.53.76.99,1.12,1.46-.07.02-.13.04-.19.06.02.07.03.14.05.2,5.54,2.72,10.73,6.14,15.44,10.17.39-.01,1.6-.08,1.49,1.06,0,.07-.03.14-.06.2,1.22,1.1,2.39,2.24,3.54,3.42.1-.13.29-.15.64-.1-.15.14-.26.26-.38.37.53.55,1.06,1.11,1.57,1.69,0-.12.02-.26.04-.44.3.34.55.64.92,1.06-.18,0-.31-.02-.43-.03,2.46,2.79,4.71,5.79,6.74,8.98.01-.01.03-.03.04-.04.11-.16.11-.01.08.23.26.41.52.83.77,1.26.2-.22.4-.44.65-.71-.08.73-.12.98-.42,1.1.08.14.16.28.24.41.02-.01.03-.02.05-.03.06.15.14.25.13.35,0,0,0,0,0,0,.27.46.54.93.8,1.4.06-.04.12-.07.2-.1.18-.05.42.12.72.22-.19.25-.34.48-.53.61.05.1.11.21.16.31.17.21.21.27.17.32,1.97,3.78,3.65,7.77,4.97,11.97,3.14,9.98,4.01,20.15,2.92,29.94.12-.04.25-.09.39-.14-.03.94,1.43.75,1.07,1.87-.46.43-1.02.53-1.73.44-1.45,10.18-5.03,19.9-10.41,28.54.47-.18.61-.02.62.5-.24-.1-.43-.19-.73-.32-2.47,3.94-5.32,7.65-8.51,11.08.03.03.07.06.1.09-.31.74-.16.77-.87.72-.88.92-1.79,1.82-2.72,2.69-.18.57-.12.49-.4.42,0-.02,0-.04,0-.06-2.24,2.07-4.62,4-7.13,5.79-.09.16-.1.23-.4.28-5.34,3.75-11.27,6.84-17.69,9.1,0,.02,0,.04-.01.06-.15.31-.68.45-.44.95.25.52.68.36,1.09.34.3-.01.59.04.89.07.14.35.33-.11-1.91,1.46-.18-.75.11-.77-1.28-1.12-.22.31-.48.32-.93.2.1-.12.2-.24.29-.36-.19-.05-.4-.1-.63-.16-.15.5-.02,1.35-.98,1.6,0-.53,0-1.04,0-1.71.06-.04.13-.08.2-.13-.31.09-.62.18-.93.27,0,.01.01.03.02.04-.06,0-.11,0-.16,0-3.42.95-6.86,1.64-10.3,2.08.05.12.09.24.13.37,1.92-.3,2.38-.5,1.41.31.53.29,1.06.58,1.66.91-.19.24-.29.38-.36.47.25.5.44.87.59,1.16.2-.06.42-.09.67-.1,0,.05.01.11.02.16,1.02-.18,2.05-.38,3.07-.6-.11-.21-.12-.53.58-.68.39-.08.89-.05.98-.07-.1.17-.19.32-.26.46.43-.1.86-.22,1.29-.33.5-.95.54-.98,1.32-.89-.39.39-.59.61-.73.74.36-.09.72-.18,1.07-.28.31-.19.62-.31.98-.29.49-.14.98-.28,1.48-.43,1.04-.33,2.07-.68,3.08-1.05.06-.13.12-.27.19-.42.07.11.12.2.17.29,1.46-.54,2.9-1.11,4.31-1.72-.15-.06-.16-.35-.16-1.03.3.33.5.55.71.79,1.16-.52,2.3-1.06,3.42-1.63-.31-.22-.64-.44-1.07-.54.82-.28,1.44-.11,2.04.05,4.01-2.1,7.77-4.54,11.28-7.25.05-.1.1-.22.15-.31.1-.02.2-.02.3-.03,16.05-12.6,26.46-31.16,28.94-51.3-1.35.59-.99.57-1.95-.13.23-.63.85.08,1.17-.47.1-.17.51-.18.84.07,1-8.58.56-17.43-1.49-26.23-.12-.03-.28-.07-.54-.14ZM.39,80.74c-.36-.64-.53-.99.27-1.15-.09.38-.15.64-.27,1.15ZM51.79,147.1c-.13.32-.25.63-.44,1.1-.39-.38-.74-.71-1.28-1.24.75.06,1.21.1,1.72.13ZM36.92,138.47c.51.14.36.01.5.61-.6-.26-.51-.08-.5-.61ZM26.81,132.38c.73.35.88.82.38,1.57-.93-1.15-.87-.8-.38-1.57ZM25.42,131.16c.16.28.31.57.57,1.03-.54-.05-.81-.08-1.16-.11.08-.69-.12-.49.59-.92ZM23.74,130.86c.6.15.7.5.65,1.1-.53-.24-.79-.49-.65-1.1ZM21.46,127.37c.23.14.1-.07.52.74-.15.11-.3.31-.44.3-.67-.07-.78-.96-.09-1.04ZM15.66,118.26c-.22.87.04.79-.85.58.04-.4-.14-.27.85-.58ZM14.35,118.21c-.28-.34-.51-.61-.86-1.03q1.12.05.86,1.03ZM7.28,100c-.13.54-.02.47-.46.34.15-.51.04-.4.46-.34ZM2.63,68.31q-.4.6-1.13.45c.43-.17.78-.31,1.13-.45ZM1.16,72.32c-.16-.48.13-.46.39-.57-.06.35-.06.49-.11.6-.02.03-.26.01-.28-.02ZM2.24,84.21c-.12.31-.25.63-.38.98.33.28.56.47.89.75-.7.18-.98.06-.92-.72-.7-.6-.69-.6.42-1.02ZM2.56,92.68c-.98-1.17-.82-.86-.78-1.41.92.6.95.63.78,1.41ZM4.7,91.41c.13.39.21.63.37,1.07-.64-.27-.83-.47-.37-1.07ZM3.95,93.33c.15.47.28.9.45,1.43-1.02,1.36-1.42-1.16-.45-1.43ZM4.29,92.05c.03.21.05.43.07.64-.41-.03-.4.1-.26-.66,0,0,.19,0,.19.02ZM4.03,90.51c-.16.8-.13.55-.14.99-.38.07-.72.13-1.12.2-.12-.98.73-.7,1.26-1.18ZM3.42,87.42c.05.85-.49.71-.8.85-.15-.29-.28-.1.8-.85ZM3.03,59.73c-.21-.06-.43-.07-.44-.13-.04-.15-.02-.34.06-.46.04-.06.26,0,.4,0,0,.17-.01.33-.02.6ZM7.26,54.21c.07-.44-.02-.34.34-.37-.02.42.04.3-.34.37ZM16.65,30.96c-.4-.25-.38-.1-.15-.56.29.15.28,0,.15.56ZM17.57,32.24c-.69-.49-.62-.36-.46-.61.75.4.66.26.46.61ZM20.9,25.73q-.46-.86.2-1.51c.47.73.46.75-.2,1.51ZM22.95,24.97c0,.31-.14.19.85.56-.65,1.46-2.01,1.19-1.52.59.44-.54.93.25-.47-1.14.86-.52,1.51-1.25,2.71-1.11-.68,1.12-.34.85-1.58,1.11ZM24.91,22.75s-.21-.04-.25-.1c-.03-.05.04-.17.07-.29.14.03.23.05.33.08-.05.11-.08.23-.15.31ZM26.49,24.02c-.48-.31-.37-.15-.22-.72.49.47.41.28.22.72ZM32.62,14.96s-.18-.07-.17-.08c.02-.1.07-.19.13-.33.11.09.19.16.26.22-.07.07-.13.15-.22.19ZM41.55,12.69c-.1-.36-.17-.24.23-.48.15.39.23.28-.23.48ZM44.44,8.66c-.13-.39-.18-.29.26-.42.07.2.23.41.2.59-.03.22-.36.12-.46-.17ZM46.87,6.66c.65.25.53,0,.63.81-.5,0-.35.22-.63-.81ZM62.93,3.82c.35-.06.26-.19.44.52-.43.1-.32.2-.44-.52ZM66.14,3.5c-.59-.47-.54-.34-.37-.58.68.46.62.33.37.58ZM67.29,2.29c-.03-.32-.18-.21.77-.44-.46.61-.25.55-.77.44ZM69.85,2.42c-.84-.27-.73-.14-.6-.54.84.28.72.16.6.54ZM73.4,2.11c.19-.83.09-.71.39-.65-.09.84,0,.71-.39.65ZM74.24.77c.08-.46-.05-.39.46-.35-.03.33.11.25-.46.35ZM76.88,1.67c.21.35.41.71.76,1.3-.69-.36-1.05-.63-.76-1.3ZM80.69,2.71q.63-.75,1.47-.39c-.49.71-.52.71-1.47.39ZM82.59,1.65q-.17-1.02.92-1.11c-.32.38-.57.69-.92,1.11ZM84.78.85c.69.39.51.21.61.73-.59.07-.67-.19-.61-.73ZM87.01,3.68c-.08-.35-.14-.6-.2-.88.74-.43.91.44,1.38.59-.36.09-.72.18-1.18.29ZM90.74,3.83c.19.04.38.08.58.12-.02.07-.04.19-.05.19-.72-.03-.6-.03-.52-.32ZM90.96,4.35c.25.24.42.4.72.69-.75.15-.81-.12-.72-.69ZM95.18,4.67c-.18-.12-.31-.17-.38-.26-.03-.03.05-.23.09-.23.4-.03.29.29.29.49ZM99.99,4.16c-.04-.14.11-.11.21-.12.11.15.24.33.42.59-.55.12-.56-.21-.63-.47ZM102.01,6.18c-.05-.12-.12-.24-.15-.37,0-.03.13-.13.15-.12.11.08.2.18.35.32-.17.08-.25.13-.34.17ZM106.55,9.27q.47-.68,1.21.19c-.47-.07-.82-.13-1.21-.19ZM110.19,11.21c-.27-.62-.22-1.04.45-1.39.19.32.37.62.67,1.14-.48.11-.79.18-1.12.25ZM113.27,11.74c-.43-.71-.41-1.16.28-1.46.4.35.81.71,1.23,1.07-.43.76-1.12-.53-1.51.39ZM122.35,19.54c-.03-.59-.04-1.11.53-1.45.06.05.11.1.17.16.08.56,0,1.03-.7,1.3ZM125.67,20.43c-.4,0-.79.31-1.33.54.09-2.09-.17-1.26,1.18-1.67.31-.1.6-.29.99-.49-.1,1.04-.04,1.61-.84,1.62ZM129.02,21.89c-.13,0-.25-.05-.57-.12.22-.24.26-.49.65-.14.03.03-.04.26-.07.26ZM137.47,31.13s-.21-.04-.25-.11c-.05-.08,0-.2,0-.32.25.06.34.09.44.11-.06.11-.09.24-.18.31ZM139.54,35.24c.61,1.22.58.99.3,1.17-.18-.29-.55-.49-.3-1.17ZM140.13,38.34c-.3.31-.6-.1-1.25-.68h.02c1.23-.45,1.47.43,1.23.68ZM143.73,39.25q-.1.74-.94.61c.33-.21.62-.4.94-.61ZM141.49,39.69c.69.34.6.21.48.55-.74-.11-.65.03-.48-.55ZM141.87,40.79c.49-.3.33-.37.65.15-.48.26-.31.25-.65-.15ZM144.03,43.1c-.43.54-.97.36-1.59.11.18-.16.35-.3.51-.44-.03,0-.05.01-.08.02-.02-.56-.04-1.07-.07-1.63-.35-.18-.29-.14-.23-.34.3.05.41.06.48.1.21.03.39.05.55.12.61.27.46.62.08,1.1.1-.09.2-.17.31-.27.34.35.37.81.04,1.23ZM145.53,50.84c.61-.1.81.09.81.72-.64-.41-.42-.22-.81-.72ZM145.8,47.19c-.02-.71-.04-1.42-.06-2.16.27.01.46-.01.48.03.16.48.38.97.41,1.47.03.41-.17.84-.83.66ZM146.66,49.29c.2-.55.1-.46.45-.36-.26.54-.15.48-.45.36ZM147.58,52.88q.7.68-.13,1.17c.04-.35.08-.69.13-1.17ZM148.75,59.73c.12-.23.18-.38.28-.5.02-.03.25.04.26.08.05.64-.11.47-.54.42ZM149.61,54.61c-.33,1.32.13,2.66-.64,2.78-.46.07-.68-.18-.77-.63-.03-.15-.24-.26-.41-.44.89-1.22,1.01-2.58,1.18-3.9,1.02-.03,1.52.53,1.04,1.26-.17.25-.28.51-.35.78.01-.01.03-.02.05-.04.49.49.45.37.27.55-.2-.21-.31-.3-.36-.36ZM89.14,150.28c.2-.42-.07-.42,1.32.2-.76.54-1.08.28-1.32-.2ZM89.91,152.2c.26-.38.43-.62.69-.99.25.7.15.99-.69.99ZM92.01,150.41c.84-.13.75.42.92.72-.27.18-.07.29-.92-.72ZM94.77,150.57c-.46-.13-.85-.24-1.36-.39.09-.56.18-1.13.27-1.72q.87.29.57,1.22c.26.22.91.21.53.88ZM95.02,151.54s-.03,0,0-.02c-.34-.7.61-.88,1.31-.64-.99.48-1.25.61-1.31.64,0,0,0,.01,0,.02ZM95.03,149.52c.81.09.56.08.99.05.1.37.19.7.3,1.1-.96.21-.76-.66-1.3-1.14ZM95.86,148.76c.38-.17.61-.27,1.04-.46-.21.67-.39.87-1.04.46ZM97.36,151.23c-.24-.29-.36-.08.83-.99-.08.71-.5.8-.83.99ZM104.57,145.82c-.53-.11-.4,0-.38-.43.55.08.47-.02.38.43ZM107.82,143.89c.4-.12.61-.2.84-.25.16-.03.25,1-.84.25ZM109.23,146.82c-.2-.3-.37-.55-.58-.88.99.07,1.02.11.58.88ZM120.71,137.61c-.05-.95-.05-1.09.56-1.01-.04-.26-.08-.51-.13-.77.5.21.55.49.36.81.05,0,.1.02.16.03-.31.31-.56.56-.95.95ZM122.38,135.85s-.06.05-.11.08c-.01.07-.02.13-.03.21-.4,0-.25.16-.66-.79.04,0,.07,0,.11.01-.03-.06-.06-.12-.09-.18.74.02.87.28.78.67ZM124.39,134.74q-.54-.51.37-1.08c-.13.37-.23.67-.37,1.08ZM128.41,130.22c.07.07.14.14.2.21-.56.3-.19.53.2.93-1.72-.23-1.57-.14-.4-1.15ZM129.89,132.92c-.21-.31-.33-.48-.59-.86.57.18.79.28.59.86ZM130.97,128.07q.34-.73,1.06-.53-.45.77-1.06.53ZM136.26,121c-.59-.02-.49.05-.46-.26.57.14.48.07.46.26ZM139.86,120.57c-.15-.01-.42-.18-.42-.28,0-.61.5-.52.97-.64.04.57.02.96-.55.91ZM142.4,117.55c-.34-.03-.27.11-.36-.45.45.09.38-.05.36.45ZM146.77,106.32c.44-.61.67-.6.96-.07-.3.02-.52.04-.96.07ZM151.71,63.04c-.05.66.07.52-.41.58-.02-.37-.13-.22.41-.58ZM150.84,79.77c.06-.34-.07-.29.42-.32-.01.46.07.38-.42.32ZM151.67,73.73c-.54-.04-.45.01-.44-.22.54.02.45-.03.44.22ZM151.42,71.09c.23-.63.13-.56.4-.45-.25.62-.15.55-.4.45ZM153.2,82.18c.07.43.13.82.22,1.44-.55-.32-.89-.52-1.26-.74.14-.44.43-.71,1.03-.7ZM151.82,70.12c-.42-.36-.69-.59-1.09-.93.5-.09.82-.15,1.45-.26-.14.47-.22.74-.36,1.19Z"/>
      <path class="cls-1" d="M7.93,91.18c.07.32.14.65.21.97.11-.1.23-.21.36-.33.43.35.83.68,1.23,1,.18-.09.33-.18.49-.26-.72-3.1-1.22-6.2-1.5-9.29-.08-.06-.16-.13-.25-.23.07,0,.15-.01.23-.02-.15-1.75-.24-3.5-.26-5.24-.08,0-.17,0-.27-.02.12-.14.21-.24.27-.31-.01-1.94.07-3.87.22-5.78-.52,0-.43-.02-.36-.35.13.03.25.07.38.11.02-.27.04-.53.07-.8-.25.17-.72.01-.83.47-.06.24-.69.39-1.15-.02-.56,6.52-.22,13.2,1.13,19.86.64-.7,1.08-1.27,1.66-.43-.87.94-1.36.78-1.61.66ZM7.92,83.5c-.38-.38-.7-.69-1.13-1.12.36-.23.67-.43.98-.64q.6,1.14.15,1.75Z"/>
      <path class="cls-1" d="M87.33,123.44c.32.16.41.07.12.54.84-.19,1.67-.39,2.5-.62-.47-.23-.92-.45-1.37-.67-.14.24-.16.15-.36.04,0-.08,0-.15.01-.21-.03-.02-.06-.03-.1-.05.21-.34.34-.58.44-.75-.13.03-.26.06-.39.1,0,.07,0,.15-.04.24-.03.09-.34.17-.35.15-.05-.09-.09-.18-.13-.27-.09.02-.18.05-.27.07.01.36-.04.31-.25.46-.13-.11-.25-.21-.38-.32-1.09.24-2.17.43-3.26.58-.03.27.04.57.28.9-.69.15-.67.2-1.28-.77-6.91.83-13.76.05-20.11-2.09-.2,0-.39,0-.6,0,.05-.06.09-.12.12-.16-1.6-.56-3.17-1.2-4.69-1.93-.17.4-.16.3-.43.13.06-.08.13-.16.19-.24-.22-.11-.44-.21-.65-.32-.02.27-.22.59.11.83.21.15.1.86-.54,1.1-.54-1.73-.65-1.41.03-2.13-2.62-1.35-5.1-2.95-7.43-4.77-.13-.04-.27-.09-.46-.16,0-.06.01-.12.02-.19-.77-.62-1.53-1.27-2.27-1.95-.24.12-.49.12-.7-.47.08,0,.13,0,.2,0-.08-.08-.16-.15-.25-.23l2.36-.76c.25.22.5.44.76.66.08.06.16.12.24.18,0,0,0,.01-.01.02,2.51,2.14,5.26,3.98,8.17,5.5.07-.37.13-.7.19-1.01.46.09.34-.15.75,1.49,2.84,1.4,5.83,2.49,8.91,3.25-.07-.32-.12-.54-.19-.87.59.2.61.43.22.87,5.23,1.28,10.74,1.62,16.27.86.01-.04.03-.07.04-.12.17-.03.3,0,.41.05,1.64-.24,3.28-.59,4.92-1.02-.03-.02-.06-.04-.1-.07-.07-.05-.15-.1-.24-.15-.31.26-.24.22-.38.06.08-.06.14-.12.19-.16-.48-.26-.99-.52-.78-.97.07-.16.42-.35.54-.29.66.3,1.57.1,2.01,1.09-.02.06-.03.1-.04.16.32-.1.65-.19.97-.29,8.68-2.81,15.88-8.09,21.08-14.82-.29-.34-.73-.69-.57-1.5.07-.36-.04-.77-.15-1.2-.05-.01-.1-.03-.15-.05.04-.03.08-.06.12-.1-.03-.11-.06-.23-.08-.35.32-.35.81-.24,1.19-.04.44.23.75.15,1.16-.03.25-.1.54-.11.83-.12.26-.41.51-.83.76-1.24-1.18-1-1.11-.87-1.23-2.01-.39-.26-.31-.38,0-.81.23.07.33.2.4.38.8.19.19.09.99,1.6.03.05.05.09.07.13.05,0,.1.03.15.06.87-1.54,1.64-3.12,2.32-4.75-.09-.12-.18-.24-.27-.36.22-.13.38-.23.55-.33.06-.14.12-.29.17-.43-.14-.36-.51-.71-.13-1.14.29-.33.35-.88.89-1.03.47-1.45.88-2.93,1.2-4.43l2.86-.93c-.56,3.08-1.44,6.08-2.6,8.97.23-.09.43-.16.64-.24.13.19.25.36.41.6-.46.22-.87.25-1.28.18-.07.17-.14.33-.21.49.35.32.79.51,1.38.47-.54.51-1.07.26-1.62.08-.07.17-.14.34-.22.5.18.05.37.09.51.19-.22.36-.28.44-.79.39-.75,1.56-1.58,3.08-2.5,4.55.11.05.23.1.36.16.41.2.95.31,1.19.91,0,.02.03.05.04.07,1.52-2.43,2.82-4.99,3.89-7.65-.56.57-.45.52-.6.41.39-.97.25-.97.77-.83.29-.74.57-1.49.82-2.25-.15-.11-.1-.09-.05-.3.05.03.09.05.13.07.12-.37.24-.74.36-1.11,0,0,0,0,0,0,0,0,0,0,0,0,.63-2.07,1.12-4.19,1.46-6.33l4.73-1.53c-.06-.13-.19-.22-.46-.22.49-.67.92-.82,1.46-.3-.02.07-.05.14-.07.21.32-.11.63-.24.93-.38.02-.28.04-.47.05-.67.3.21.4.29.31.49,2.24-1.11,4.07-2.88,5.22-5.15,1.28-2.5,1.61-5.32.96-8.03-.2-.26-.3-.61-.29-1.05l-2.32-7.17c-.13.68-.37.77-.69.62-.08-.04-.09-.23-.14-.36.23-.07.45-.15.83-.27l-4.32-13.36c-1.99-6.14-8.61-9.52-14.75-7.54l-5.6,1.81c.01.26-.01.52-.01.79-.07.02-.14.03-.22.05-.18-.26-.42-.51-.53-.8,0,0,0-.02,0-.02-2.1-1.93-4.37-3.66-6.76-5.18.07.24.02.52.06.56-.65.05-.62-.58-1.01-.89.14-.03.26-.04.36-.05-.48-.3-.98-.58-1.47-.86.05.08,0,.09-.26.28-.15-.3-.18-.22.02-.42-2.12-1.19-4.33-2.22-6.6-3.08-.2.1-.41.05-.69-.17.03-.02.06-.04.1-.06-.02,0-.05-.02-.07-.03-.12.31.07.19-1.38.7-.03-.02-.05-.04-.08-.06.12.08-.02.21-.3.65-.12-.33-.19-.52-.3-.82.32.08.5.12.59.16,0,0-.02-.01-.02-.02,0-.53.08-.83.33-1.02-1.52-.51-3.07-.94-4.64-1.29.28.45.54.87.79,1.28.87-.69,1.36-.66,2.26.15,0-.03,0-.07,0-.12.38.09.29.03.29.27-.1,0-.16,0-.21,0-.18.36-.34.74-.51,1.11.72.22,1.44.45,2.15.7.04-.19.07-.39.12-.61.3.34.54.6.77.85,0,.03-.01.04-.02.07.58.22,1.16.45,1.73.69-.02-.09,0-.26,0-.58.81.38.68.26.66.53-.25.05-.4.09-.5.11,2.14.91,4.22,1.98,6.2,3.2.03-.27.06-.49.1-.8.4.19.68.33,1.19.57-.42.18-.69.29-.98.42.69.43,1.36.89,2.03,1.35.05-.03.11-.05.17-.09.04.09.05.17.06.25,1.35.96,2.66,1.98,3.91,3.09l-2.7.87c-1.95-1.61-4.03-3.05-6.22-4.3-.1.03-.21.08-.31.16.02-.11.05-.21.07-.3-3.33-1.88-6.91-3.33-10.63-4.29-.05,0-.09-.01-.14-.04-.94-.24-1.88-.45-2.83-.62-.1.06-.2.11-.3.17,0-.08,0-.15-.01-.23-6.7-1.19-13.77-.84-20.69,1.34-2.72.85-5.29,1.96-7.71,3.26.1.05.2.1.32.16-.66.24-1.2.44-1.71.63-10.13,5.98-17.27,15.74-20.13,26.82l-2.69.87c3.03-13.57,12.12-25.45,25.19-31.67-.13-.43-.14-.35.13-.44.03.16.05.27.06.35,1.86-.88,3.81-1.64,5.82-2.27,0,0,0,0,0,0-.08-.11-.17-.22-.27-.35.36-.03.58-.05.9-.08-.03.1-.06.19-.08.27.81-.24,1.62-.47,2.43-.67-.04-.25-.09-.51-.14-.82.22.1.81.31,1.2.58,5.67-1.23,11.38-1.36,16.86-.5-.13-.05-.28-.1-.45-.14,2.59-2.18,4.21.86,2.93-.96.19-.1.38-.19.56-.29-2.72-.59-5.51-.95-8.33-1.06.42.21.12.57-.1.51-.34-.1-.25-.37-.18-.52-.07,0-.15,0-.22,0-.19.06-.26.09-.25,0-2.74-.06-5.5.11-8.28.53.1.15.11.36,0,.67-.39-.14-.62-.3-.61-.58-2.2.36-4.4.88-6.59,1.57-12.65,3.98-22.49,12.73-28.18,23.66.22.08.42.21.61.44-.11.13-.22.37-.35.38-.24.02-.48.04-.7.04-.27.54-.52,1.09-.77,1.64,1.34-.3,1.13-.09,1.54.22-.55.31-1.06.6-1.71.97-.06-.09-.14-.2-.21-.32-.42.99-.82,2-1.17,3.02.08.03.13.06.16.11.26.45-.01.59-.43.66-.22.67-.43,1.35-.62,2.02.17-.03.26.19.42.7-.21-.04-.4-.08-.58-.12-.28,1.04-.53,2.09-.74,3.15l-.05.02c.14.09.23.24.23.5,0,.87-.45,1.29-1.7,1.56.17-.6.34-1.17.51-1.75l-2.13.69s.04.07.09.15c-.39.35-.17.28-.86.39-.03-.08-.07-.17-.1-.25,0,0,0,0,0,0l-2.5.81c-.1.27-.24.64-.43,1.15-.2-.38-.3-.67-.31-.91l-1.47.48c-6.14,1.99-9.53,8.61-7.54,14.75l.52,1.62c.14-.1.32-.22.56-.37-.35.43-.12.93-.26,1.29l5.87,18.15c1.33,4.11,4.74,6.98,8.68,7.84.08-.02.24.03.69.13.59.09,1.18.14,1.78.14,1.19,0,2.4-.18,3.6-.57l7.9-2.56c.64.65,1.31,1.26,1.99,1.87.29-.35.51-.23,1.2.3-.25.03-.5.07-.74.1.58.5,1.17.99,1.77,1.47.52.05,1.05.09,1.59.14-.03.33-.09.64-.23.89.29.21.58.44.88.64,0-.16.06-.29.16-.41.15-1.1.16-1.1.85-.94.03.41-.22.56-.55.76.34.58.47.9.33,1.13,4.9,3.29,10.38,5.67,16.16,7-.04-.22-.08-.44-.12-.66q1.29-.12,1.68.53c-.25.11-.49.21-.73.31,5.12,1.08,10.47,1.34,15.84.67.06-.18.11-.37.18-.55,0-.01.2.02.2.03,0,.16,0,.32-.02.47,1.16-.15,2.32-.36,3.48-.6.03-.31.24-.5.47-.67ZM117.29,100.95c-.42-.54-.18-.78.37-1.11-.02.65.11.34-.37,1.11ZM91.57,31.84c.07.02.11.17.19.31-.13.04-.26.12-.3.09-.08-.05-.15-.19-.14-.26.01-.07.18-.16.25-.13ZM94.66,33.68c-.09.05-.29.02-.36-.06-.06-.07,0-.24,0-.44.21.07.39.07.45.16.05.06-.02.29-.1.34ZM99.07,35.54s0-.07,0-.11c-.06.21-.19.2-.69.19.31-.2.51-.33.74-.48,0,0,0,.01,0,.02.05,0,.14.02.29.03-.02.36.09.31-.33.34ZM103.44,37.64c-.54-.04-.44-.62-.53-.57.28.05.62.06.53.57ZM105.28,40.11c-.08.02-.18-.07-.3-.13.04-.13.07-.23.1-.33.11.07.24.12.32.21.03.03-.06.23-.12.24ZM82.7,29.57c-.67.51-.51.5-.75.16.73-.43.58-.42.75-.16ZM34.59,56.03c.41.15.3.07.33.34-.42-.09-.31-.03-.33-.34ZM34.58,58.62c-.46.28-.71.21-.91-.21.39-.29.63-.14.91.21ZM48.68,109.52c.33-.34.1-.35.85-.09-.5.43-.28.47-.85.09ZM54.09,112.06c-.52-.24-.44-.11-.29-.55.48.24.37.11.29.55ZM57.24,114.6c-.82-.41-.24-.67-.18-.95.31.02.26-.16.18.95ZM56.83,112.4c.37-.19.23-.18.52.11-.44.16-.3.19-.52-.11ZM60.41,117.25c.58-.32.45-.32.61-.09-.55.4-.42.4-.61.09ZM68.52,119.15c.09-.53.03-.45.26-.42-.07.54,0,.46-.26.42ZM76,117.41c.89.24,1.7.45,1.74,1.52-1.32.33-1.89-.15-1.74-1.52ZM83.1,118.12c-.64-.01-.46-.15-.37-.57.22.14.36.22.47.32.03.03-.07.25-.1.25ZM88.51,116.78c.34.07.68.14,1.15.24q-.74.63-1.15-.24ZM91.09,115.9c.47-.6.26-.4.79-.74.04.61-.17.8-.79.74ZM93.64,116.92c-.52-.31-.46-.2-.32-.48.53.25.45.14.32.48ZM109.5,105.22c-.36-.04-.85.2-.91-.51,0,0-.01,0-.02,0,0,0,0,0,0,0,0,0,0,0,0-.01-.66-.27-1.33-.53-1.5-1.5.52.17.99.32,1.54.5-.03.76-.05.95-.04,1,0,0,.01,0,.02,0h0s0,0,0,.01c1.16.33,1.01.21.91.51ZM108.04,103.34c.03-.25-.08-.19.43-.24-.02.36.06.29-.43.24ZM108.63,102.95c.49-.23.29-.19.77-.07-.5.35-.32.29-.71.25-.02-.06-.04-.12-.06-.18ZM109.18,102.82c.12-.56.29-.94.84-.94.09,0,.19.25.32.44-.4.17-.72.31-1.15.49ZM113.39,99.27c-.29.49-.68.33-1.07.21-.03.03-.06.06-.09.09,0-.05,0-.08,0-.12-.21-.06-.42-.09-.6.02.27-.51.53-1.02.81-1.55.56.29,1,.64.96,1.34ZM122.4,89.5c.1-.14.2-.28.3-.42.05.05.15.13.14.14-.29.5-.27.39-.44.27ZM122.88,88.14q-.36-.58.34-.84c-.13.32-.22.54-.34.84ZM137.27,70.81c-.13.02-.22.06-.27.04-.34-.17-.68-.38-.56-.83.11-.45,1.2-.28.83.79ZM136.18,69.5c.37.19.3.09.2.38-.39-.15-.32-.07-.2-.38ZM131.93,51.77c.17.64.08,1.1-.48,1.38q-.47-.69.48-1.38ZM122.77,40.37c-.39-.1-.28.04-.31-.63.41.4.34.23.31.63ZM120,39.95c.5.48.36.74.18,1-.43-.03-.35.15-.18-1ZM116.32,39.95c.27-.05.15-.17.53.72-.71-.4-.59-.21-.53-.72ZM114.74,40.88c.09-.05.3,0,.35.07.05.08-.02.25-.05.48-.19-.09-.36-.12-.4-.2-.04-.1.01-.3.09-.35ZM110.12,42.65q-.75.13-1.13-.89c.34.27.68.54,1.13.89ZM97.97,41.38c.12-.04.25-.03.43-.05-.01.18-.02.28-.03.38-.13-.02-.28,0-.39-.06-.04-.02-.04-.26-.01-.27ZM90.68,37.14c.18.77.19.51-.11.95-.46-.38-.32-.61.11-.95ZM90.03,36c-.49.03-.89.06-1.44.09q.62-.82,1.44-.09ZM87.81,36.25c-.85.13-.87.12-1.29-.8q.98-.06,1.29.8ZM83.56,36.63c-.32.52-.15.51-.64.3.15-.35-.02-.28.64-.3ZM76.43,36c.54.54.13.83.06,1.16-.42-.09-.37.13-.06-1.16ZM62.98,37.37s.18.05.37.1c-.09.15-.13.28-.22.36-.02.02-.45-.03-.14-.46ZM55.82,41.19c.02.43.14.33-.36.46.05-.44-.01-.31.36-.46ZM44.42,52.96c.22.32.27.19-.3.59-.19-.31-.27-.18.3-.59ZM47.19,50.64c-.06-.11-.09-.25-.09-.43.16,0,.31,0,.43.04,3.79-4.19,8.5-7.62,13.96-9.92-.02,0-.03-.02-.05-.02.26-.43.11-.39.64-.21.98-.4,1.98-.76,3-1.08,6.2-1.95,12.53-2.3,18.54-1.28.24-.43.97-.5,1.26.23.18.04.37.08.55.12-.93-1.15-.16-2.2.18-1.52.31.62-.61.74,1.23.05.08.64.27,1.24.23,1.86,4.27,1.12,8.33,2.94,12,5.38,0-.12,0-.24,0-.36,0,0,.06-.01.12-.02.06-.29.29-.31.67-.12-.16.12-.33.23-.55.39.03.18.03.25,0,.29.41.27.82.55,1.21.84l-7.86,2.54c-.03.69-.18,1.43-.83.91-.19-.15-.35-.32-.5-.48l-30.79,9.97q-.07.67-.95.75c.06-.24.09-.39.15-.49l-10.08,3.26c.59.21.51.14.34.48-.51-.29-.61-.32-.6-.4l-4.46,1.44c-.02.44-.03.85-.05,1.26-.52-.32-.79-.63-.82-.98l-4.94,1.6c1.69-5.18,4.43-9.98,8.04-14.08ZM98.75,46.07c-.13-.72-.17-.59.14-.65.14.72.19.59-.14.65ZM94.09,48.74c-.24-.11-.42-.13-.46-.22-.05-.11-.03-.31.05-.39.06-.06.34-.04.36,0,.06.14.03.31.04.6ZM47.3,63.89c-.39-.22-.29-.11-.29-.51.4.14.36,0,.29.51ZM31.27,66.24c-.1.23.01.21-.37.16.12-.3.03-.27.37-.16ZM27.65,68.91c-.29.31-.13.33-.59.05.37-.27.22-.22.59-.05ZM26.67,69.27c.24.38.39.61.68,1.05-.43-.12-.69-.13-.86-.26-.41-.29-.07-.47.19-.79ZM25.29,70.65c-.22.41-.05.37-.57.29.1-.33-.07-.28.57-.29ZM23.16,71.02c.17.03.35.06.51.11.02,0,0,.19,0,.19-.67.02-.56.04-.51-.3ZM19.98,100.19c-.61-.33-.54-.22-.42-.44.61.33.54.22.42.44ZM24.96,111.57c.42.03.33-.05.38.31-.36.02-.26.08-.38-.31ZM31.15,113.49c.14-.83.57-.64,1.01-.43-.3.13-.59.25-1.01.43ZM34.5,111.8c-.16.05-.32.09-.48.13.55.3.6.86.41,1.06-.34.35-.66-.06-1.39-.85-4.75.78-9.5-2-11.02-6.72l-6.69-20.68c-1.01-3.13-.37-6.4,1.43-8.87-.01-.02-.02-.03-.03-.05.02,0,.03.01.05.02,1.19-1.62,2.87-2.91,4.93-3.58l.72-.23c-.08-.07-.18-.16-.33-.29.61-.04.97-.06,1.27-.02l2.91-.94s.02-.07.04-.15c.08.03.15.05.21.07l3.41-1.1c.04-.35.41-.78.63-1.23.19.15.4.18.62.18,0-.07,0-.14,0-.22.12.08.22.15.29.21.4-.04.8-.11,1.15.19l.26-.08c-.04-.08-.17-.2-.43-.47q-.4-.41.23-.93c.36.2.27.92.89.86.02,0,.04.11.07.23,0,0,.02-.01.02-.02,0,.02,0,.05,0,.07l24.89-8.06c-.06-.07-.1-.14-.13-.23-.12-.4.15-.66,1.07-.98,0,.3-.03.62.09.88l46.8-15.15c-.13-.07-.26-.14-.41-.22.3-.64.82-.48,1.43-.11l.66-.22c.09-.07.18-.14.27-.21,0,.04,0,.08.01.12l.85-.28s0,0,0,0l2.08-.65s-.01-.01-.02-.02l.46-.15c-.5-.28-.41-.38.17-.94.06.3.11.55.16.84l.29-.09c-.47-1.15.3-1.7.65-1.57.43.15.25.56-.11,1.4l.65-.21c.02-.12.04-.24.07-.37.21.03.34.11.43.21l2.48-.8c1.01-.33,2.04-.49,3.06-.49,1.55,0,3.08.37,4.5,1.09,2.36,1.2,4.1,3.26,4.92,5.77l4.95,15.31s.08-.06.11-.09c1.03,1.27.96,1.05.67,1.29-.42-.13-.51-.53-.68-.86l1.63,5.05c.81,2.52.6,5.2-.6,7.56-.92,1.8-2.33,3.24-4.07,4.18-.08.54-.02.47-.26.44.01-.15.02-.25.02-.32-.29.15-.6.29-.91.41-.08.25-.14.45-.22.71-.23-.28-.33-.42-.29-.51-.02,0-.03.01-.05.02l-14.46,4.68c-.04.11-.09.24-.15.38-.05-.09-.09-.19-.13-.29l-15.34,4.96c-.07.25-.15.51-.23.81-.2-.32-.3-.48-.26-.65l-5.36,1.74c.07.98.14,1.17-.14,1.45.06.06.13.13.19.21.06-.02.11-.03.17-.03.02,0,.06.09.08.16l3.74-1.21c.01-.06.08-.12.21-.28-.18-.12-.36-.28-.51-.51.48-.21.82-.35,1.26-.54.21.27.41.53.64.82l14.16-4.58c.35-.27.56-.43.92-.71-.02.19-.06.33-.11.44l1.25-.4c-.81,2.97-1.97,5.83-3.43,8.53.03.01.05.07.1.15-.1.04-.17.07-.24.1-.13.23-.26.46-.39.68-.02.07-.06.14-.14.24-.54.93-1.12,1.83-1.74,2.71.12-.08.26-.16.44-.27-.13.51-.26.98-.39,1.5-.24-.33-.39-.54-.42-.71-.36.49-.73.98-1.11,1.46.05-.02.14-.05.26-.1.31.72.36.56-.13.76-.13-.34-.2-.49-.2-.57-1.24,1.55-2.59,3.01-4.06,4.36.05,0,.1,0,.16-.01-.21.39-.1.4-.44.27-2.66,2.41-5.68,4.49-9,6.14.06.03.04.1.05.29-.38.01-.59.04-.7.03-.8.38-1.61.73-2.44,1.06-.55.57-.44.5-.62.36.08-.08.14-.14.19-.2-.64.24-1.29.48-1.95.69-13.27,4.29-27.19,1.23-37.32-6.93l5.92-1.91c-.17-.17-.12-.13-1.36.14-.14-1.15-.09-1.21.8-.98.29.08.97-.1,1.57.51l21.42-6.93c-.08-.22-.08-.42.13-.57.14-.1.53-.11.61,0,.07.09.16.18.25.26l4.38-1.42s-.02-.05-.03-.08c.85-.27.89-.32.91-.21l4.18-1.35c.07-.29.16-.58.3-.86.18-.36.22-.48.48-.59-.01-.02-.02-.04-.04-.06.16-.81.82-.81,1.31-.9.04-.07.07-.13.1-.19l-7.04,2.28c.14.11.24.32.36.53-.65.55-1.01,0-.97-.33l-50.52,16.35ZM96.96,93.06c-.08.46-.08.38-.36.29.06-.12.11-.25.18-.36,0-.01.18.05.18.07ZM79.04,98.39c.14-.59,0-.41.73-.58-.63.77-.5.69-.73.58ZM45.87,112.89c.15-.73.54-.58,1-.43-.34.15-.63.27-1,.43ZM70.42,124.55q.34-.61.79-.07c-.28.02-.51.04-.79.07Z"/>
      <path class="cls-1" d="M86.11,91.45c1.33-2.01,2.53-4.53,3.61-6.69.67-1.35,1.5-2.92,2.14-4.37-.28.24-.53.46-.81.7-.33-.63-.17-.6-.89-.33-.07.14-.13.27-.19.38,0,.27-.01.54-.02.88-.12-.04-.24-.07-.35-.11-1.24,2.62-2.76,5.93-4.33,8.37.18.37.35.71.51,1.05-.54-.23-.98.04-1.43.21-.25.25-.52.39-.96.57-.23.23-.63.33-.73.69-.19-.07-.32-.15-.42-.25-.31.11-.61.23-.92.34.41.22.34.16.2.38-.26-.16-.4-.24-.47-.29-1.69.59-3.43,1.15-5.1,1.75-2.01.71-4.03,1.55-6.06,2.21-.51.16-1.13.11-1.59-.17-1.35-1.35-3.03-2.73-4.27-4.17-.37-.43-.55-.69-.57-1.28.9-4.91,1.91-9.81,2.91-14.71-.16.21-.32.43-.5.65-.98-.51-.31-1.87.6-1.17.07-.32.13-.64.2-.96-.09.02-.17.03-.26.01-.31-.26-.62-.53-.98-.84-1.01,4.9-2.04,9.8-2.96,14.72-.31,1.63-.79,2.91.41,4.35.32.28.63.58.94.89.18.05.35.07.4.16.06.11.1.24.1.35.95.99,1.87,2.05,2.88,2.87.87.72,2.05.94,3.14.59,2.69-.88,5.43-1.99,8.09-2.94.54-.19,1.08-.38,1.63-.56.13-.1.25-.2.32-.32.02.06.05.13.07.19,1.03-.34,2.06-.68,3.05-1.06,1.43-.55,1.78-.83,2.61-2.08ZM88.88,85.73c-.7.43-.55.43-.68.1.67-.35.53-.35.68-.1ZM86.43,89.6c0,.69-.29.77-.6.82-.27-.33-.35-.15.6-.82ZM64.62,94.91c.49-.44.81-.21,1.22.32-.62.25-1,.3-1.22-.32ZM81.68,93.56c.46-.27.28-.25.71.14-.58.24-.42.33-.71-.14Z"/>
      <path class="cls-1" d="M81.62,153.82c.06.03.11.06.17.1.67-.04,1.35-.09,2.03-.15-.02-.12-.1-.3-.2-.63.64-.06.74.29.88.57.4-.04.81-.08,1.21-.13-.56-1.82-.51-1.01-.43-3.31-.46-.19-.93.25-1.1-.41,0,0,.02-.02.03-.02-2.04.2-4.08.31-6.11.34.08.37.05.79.16,1.18-.86.2-.87-.12-.81-1.17-1.16,0-2.31-.02-3.46-.07,0,.09,0,.18-.02.28-.15.6-.51.78-1.62.81.16-.4.3-.78.44-1.15-3.55-.21-7.07-.68-10.52-1.4-.05.28-.2.57-.45.91-.45.04-.9.07-1.56.13.75,1.59.71,1.32.53,1.72-.18.38-.29.63-.32.83.41.09.83.18,1.25.26.15-.6.08-1.12.27-1.1,2.45.22,2.11.27,2.22.49-.07.43-.66.57-.91.92,3.22.59,6.49.98,9.79,1.15.1-.13.12-.07.38.02.04,0,.08,0,.12,0-.19-.37-.36-.69-.52-1.01.61.33.63.35.56,1.01,2.56.12,5.13.1,7.71-.04.07-.05.16-.1.29-.13ZM84.38,151.35c.57.44.28.66-.06.88.02-.25.03-.49.06-.88ZM61.68,150.77c-.04-.25-.07-.45-.13-.84q.58.42.13.84ZM64.72,151.42q-.37-.82.38-1.31c-.15.51-.26.91-.38,1.31ZM67.97,153.14c-.44-.42-.36-.68-.1-.9.05-.04.29.05.29.06-.04.24-.1.48-.18.84ZM68.55,153.01c-.46-.06-.38.03-.28-.44.34.09.3-.04.28.44ZM79.07,150.82c.12-.29-.1-.25,1.3,0q-.67.48-1.3,0ZM79.78,152.37c.27-.23.13-.3.64.21-.26.23-.12.26-.64-.21Z"/>
      <path class="cls-1" d="M37.48,89.31l.39,3.16,2.21-2.29,3.12.61-1.49-2.81,1.27-2.28c-.2-.12-.39-.3-.63-.34l-2.23.39-1.52-1.63c-.09-.06-.17-.14-.27-.24,0,0,.01-.02.02-.02l-.4-.43-.45,3.15-2.88,1.34,2.86,1.4ZM39.24,89.55c.7.84.64.67.45.83-.68-.82-.62-.65-.45-.83Z"/>
      <rect class="cls-1" x="30.97" y="39.71" width="3.43" height="1.35" transform="translate(-19.27 39.94) rotate(-50.52)"/>
      <path class="cls-1" d="M29.13,132.28c-.09-.07-.17-.15-.26-.22.02.09.04.17.07.27,0,0,.08-.02.19-.05Z"/>
      <path class="cls-1" d="M27.17,124.6s.02,0,.03,0c.04-.01.14-.05.33-.11-.07-.07-.14-.15-.22-.22-.07.08-.12.19-.15.33,0,0,0,0,0,0,0,0,0,0,0,0Z"/>
      <path class="cls-1" d="M55.18,150.1c-.11.21-.31.37-.53.61,1.57.48,3.16.91,4.76,1.29-.01-.72-.07-1.73-.37-3.12-.56-.21-.68-.24-.68-.27,0,0,0,0,0,.01-.28.12-.58.51-.83-.01-.17-.36-.44-.42-.74-.28-.33.15-.59.36-.36.8.05.1-.03.27-.07.53-1.39-.63-.67-.48-1.16.45Z"/>
      <path class="cls-1" d="M112.07,123.19c-.17.05-.36.06-.58,0-.66-.19-.7-.76-.71-1.42.18.09.35.18.52.26l-2.48-3.78c-.36.12-.6-.07-.85-.28.01.12.02.24.04.38q-.82-.5-.13-1.33s0,.07.01.11c.04-.02.09-.04.14-.06l-.4-.61-2.6,1.7,3.08,4.69s.1,0,.1,0c0,.07.02.13.02.19l.08.12-.06.04c.02.26-.03.2-.28.18l-.93.61c-.12.08-.24.17-.35.25-.05.17-.06.23-.22.2-1.4,1.33-1.39,3.43.08,5.68,1.65,2.52,3.88,3.29,5.83,2.01l3.87-2.54-4.2-6.4ZM108.25,119.22c-1,.11-.82.17-.89-.22.96-.18.78-.25.89.22ZM108.24,120.48c-.21.04-.12.13-.38-.5,0,0,0,0-.01,0,0,0,0,0,0,0-.44.39-.34.35-.55.29.18-.68.05-.64.55-.29,0,0,.01,0,.02-.02h0s0,0,0,.01c.59-.36.49-.48.38.5ZM106.78,127.97c.59-.02.46-.08.5.28-.6-.03-.5.04-.5-.28ZM109.04,121.78c.27,0,.07-.13.73.39-.55.55-.34.34-.77.78.31,1,.3.64-.22,1.42-.22-1.4-.21-1.47.26-2.58ZM111.47,129.26c-.75.49-1.63.17-2.3-.85-.35-.53-.5-1.04-.46-1.47-.16-.08-.29-.25-.33-.56.32-.14.64-.28.96-.43l.57-.37.06.09c.13-.06.25-.11.38-.17.09.26.19.43.16.45-.07.06-.15.13-.22.2l1.78,2.71-.61.4ZM112.37,129.93q.63.48.17,1.03c-.06-.37-.11-.63-.17-1.03Z"/>
      <path class="cls-1" d="M57.34,31.12l2.96-.96-1.19-3.66c-.05-.15-.11-.31-.16-.46.05.31.03.63-.15.98-.16-.05-.43-.06-.48-.17-.54-1.05-.98-2.12.12-2.18-1.01-2.47-2.42-5.18-3.47-7.23l.25-.08c1.3,2.58,3.35,6.04,5.06,8.52l2.42,3.51,3.27-1.06-2.45-7.55c-.37-.22-.46-.46-.31-.96l-.61-1.87s-.08,0-.13-.01c.03-.04.06-.07.09-.11l-.84-2.59c-.11.4-.39.37-.86.23.29-.2.48-.34.76-.54l-.51-1.58-1.8.58c.05.27.09.52.16.91-.66-.38-.82-.48-.59-.77l-.73.24,1.24,3.81c.91,2.79,2.77,6.33,4.08,8.92l-.25.08c-.68-1.4-1.56-3.02-2.47-4.6-.14.23-.1.2-.53.06.16-.35.09-.38.38-.32-.75-1.28-1.52-2.53-2.22-3.58l-2.43-3.66-3.46,1.12,4.86,14.97ZM59.91,18.86c.21-1.26,1.1-.55,1.2-.6-.2.62-.77.35-1.2.6ZM61.13,18.26c.16-.24.29-.55.72-.27-.24.49-.74.17-.72.27ZM63.23,24.47c0-.13.07-.25.12-.42.16.08.25.13.34.17-.06.12-.11.25-.2.34-.03.03-.26-.06-.26-.09ZM58.82,19.89c-.37.03-.26.1-.42-.28.39-.08.3-.18.42.28ZM58.06,20.8c.33.16.32.03.19.44-.44-.16-.38-.06-.19-.44Z"/>
      <path class="cls-1" d="M79.07.03s-.02,0-.03,0c0,0,0,0,0,.01,0,0,.02,0,.03-.01Z"/>
      <path class="cls-1" d="M48.98,84.27l-1.54-1.65-.32,2.23-2.05.95,2.03.99.26,2.1s.08.03.11.04l1.47-1.52,2.21.43-1.06-1.99.09-.15s-.09-.04-.14-.05c-.32-.08-.22-.56.24-1.12.01.24.1.43.21.61l.7-1.26-2.22.39Z"/>
      <path class="cls-1" d="M29.69,126.64c-.2-.03-.4-.05-.61-.08.03-.17.06-.31.09-.41-.2-.19-.4-.39-.59-.59-.1.06-.21.12-.29.17.04.41.12.83-.56,1.09-.07-.46-.12-.86-.2-1.4.79.27.6.2.76.31-.15-.11-.05-.36-.15-.6-.11-.11-.21-.22-.31-.33-.15-.08-.35-.15-.64-.2-.02,0-.03,0-.03,0,0,0,0,0,0,0,0,0,0,0,0,0,0,0,0,0,0,0,0,0,0,0,0,0-.03-.03-.36-.19-2.51-1.35.24-.3.43-.55.77-.99-.79.12-1.36.04-1.69-.62-.16.07-.27-.02-.81-.12.66-.4.98-.59,1.33-.67-.09-.11-.18-.23-.28-.34-.41.23-.34.18-.44-.12.09-.03.19-.05.28-.08-.58-.71-1.15-1.43-1.7-2.17-.03.05-.06.09-.1.14-.25-.24-.35-.48-.34-.74-1.48-2.02-2.86-4.13-4.13-6.34-.04,0-.08-.02-.11-.04-.26-.17-.29-.35-.21-.54-2.28-4.06-4.19-8.42-5.64-13.03-.3-.96-.58-1.92-.84-2.89-1.16-.46-1.39-.45-2.08-.29.32,1.26.67,2.51,1.07,3.76,1.6,5.09,3.73,9.88,6.31,14.31.1-.3.21-.59.32-.9.56.57.61.62.18,1.74,1.95,3.26,4.15,6.32,6.56,9.17.08-.11.3-.04.82.12-.23.1-.4.17-.53.22.7.82,1.43,1.62,2.17,2.4-.04-.36.07-.56.6-.59-.07.53-.11.87-.14,1.08.14.15.28.3.42.44.04.01.08.02.12.04,0,.02-.02.04-.03.06.3.31.61.61.92.92.28-.06.72.06,1.48.33.09.47,0,.59-.51.61.61.58,1.22,1.14,1.85,1.7.42-.39,1.03-.83.67-1.77.11,0,.19,0,.28.01-.52-.47-1.04-.94-1.54-1.42ZM10.46,97.33c.44-.02.36.26.41,2.62-1.44-1.38-.9-2.6-.41-2.62ZM18.25,113.64c.53.12.37,0,.5.57-.69-.36-.55-.22-.5-.57ZM21.94,118.77c.54-.08.41-.23.51.77-.52,0-.41.2-.51-.77Z"/>
      <path class="cls-1" d="M149.62,86.07s.03-.07.05-.12c-.01,0-.02,0-.04,0,0,.04-.01.08-.02.12Z"/>
      <path class="cls-1" d="M106.29,114.12c.1-.22.17-.37.27-.59-.15-.04-.35-.03-.4-.11-.13-.19-.17-.33-.17-.45-4.36,3.52-9.43,6.31-15.1,8.09-.21.06-.41.12-.62.18.23.55-.33.48-.5.7.29-.05.58-.09.85-.14.47.83-.37,1.01-.56,1.52.47-.13.94-.27,1.41-.42.22-.07.43-.14.64-.21-.24-.14-.41-.48-.68-.62.63-.56.78-.5,1.22.44,5.97-2.04,11.28-5.16,15.8-9.07-.8.25-1.43.45-2.15.67ZM100.35,118.7c.19-.38.08-.32.43-.23-.12.34-.03.27-.43.23Z"/>
      <path class="cls-1" d="M67.55,64.86c.16-.09.35-.13.61-.1-.11-.29.03-.27-.79-.25,0,0,0,0-.01,0-.01.07-.02.15-.04.22.08,0,.16.06.24.14Z"/>
      <path class="cls-1" d="M73.31,60.94s.09.08.14.12c.02-.04.03-.08.05-.11-.09,0-.15-.01-.19,0Z"/>
      <path class="cls-1" d="M108.5,113.38c2.3-2,4.37-4.21,6.24-6.58-.08-.13-.16-.27-.24-.41-.87-.44-1.48.44-2.32.5-1.74,2.05-3.66,3.96-5.75,5.7.63.21,1.25.47,2.07.79ZM112.38,108.73c.08-.04.2.01.32.02-.09.24-.12.33-.15.43-.1-.07-.23-.11-.29-.21-.03-.03.06-.21.13-.24ZM112.03,109.03c-.29-.15-.59-.31-1.04-.55.71-.36,1.09-.4,1.04.55Z"/>
      <path class="cls-1" d="M67.06,73.22c-.2.2-.45.32-.82.24-.24-.05-.42-.14-.59-.23-.03.17-.07.33-.1.5.49.07.93.18,1.36.2.05-.24.1-.47.14-.71Z"/>
      <path class="cls-1" d="M75.49,61.13c-1.01.13-1.47.11-1.54.38.12.11.25.22.37.33.47-.06,1.06.14,1.17-.71Z"/>
      <path class="cls-1" d="M67.83,66.26c.1.22.23.4.51.43.03-.18.06-.36.1-.55-.35.08-.51.12-.6.11Z"/>
      <path class="cls-1" d="M67.43,65.61c.1.07.17.17.23.28,0,0,0,0,0,0,.24-.08.42-.14.54-.19-.25-.4-.39-.44-.77-.09Z"/>
      <path class="cls-1" d="M74,63.73c.14-.06.27-.1.4-.13-.14-.13-.28-.25-.43-.38-.02,0-.05,0-.07,0,0-.02,0-.04,0-.05-.43-.39-.85-.78-1.28-1.17-.12,0-.3-.09-.62-.24,0-.09.05-.16.1-.24-.22-.2-.44-.4-.66-.61-.25-.24-.59-.18-.8.08-.11.58-.22,1.17-.33,1.75,0,.15,0,.21-.04.24-.09.48-.18.96-.27,1.44.08-.08.17-.16.29-.27.09.41.16.73.23,1.05-.3-.13-.5-.22-.62-.3-.56,2.98-1.15,5.95-1.74,8.92.56-.04,1.14-.05,1.7-.08q-.1.88-1.16,1.45c.13,1.04.16,2.06-.77,2.8,0,0,0,0,0,0-.42.6-.3.54-.56.35.02-.03.04-.05.05-.07-.04-.03-.09-.07-.14-.11-.87,4.32-1.75,8.63-2.6,12.95-.01.2.02.4.16.55l4.06,4.04c.38.17.76.04.93-.35,1.68-6.01,3.25-12.05,4.94-18.05.13-.47.46-1.92.66-2.24.16-.25.49-.39.78-.29l.56.44s.01-.04,0-.04c.02.03.03.05.05.08l1.81,1.43c.3.19.75.14.95-.18.42-1.03.92-2.02,1.38-3.03.32-.71.93-1.83,1.13-2.52.09-.32.07-.36-.13-.63-1.11-.99-2.23-1.98-3.35-2.97,0,.03.02.07.03.11-.34.05-.23.18-.5-.4.06,0,.11,0,.15,0-.39-.35-.79-.69-1.18-1.04,0,.07,0,.13,0,.19-.09.5-.39.26-.8.15.16-.25.29-.44.43-.67-.38-.33-.75-.67-1.13-1.01-.61.09-1.2.17-1.82.26-.22-.58-.37-1,.17-1.24ZM68.71,78.99c.27-1,.8-.92,1.32-.86.02.13.07.18,0,.24.01.02.02.04.04.06-.25.17-.27.24-.34.11-.2.09-.52.23-1.02.45ZM69.49,84.47c.5.02.35-.21.61.83-.64-.27-.53-.02-.61-.83ZM69.33,77.1c.4-.46.64-.37.81.16-.23-.05-.47-.09-.81-.16ZM70.45,91.65c-.07.02-.23-.04-.27-.11-.03-.05.04-.22.11-.26.07-.03.19.03.33.07-.07.13-.1.28-.17.3ZM72.54,63.26c.06-.03.24.03.27.09.03.07-.05.19-.09.35-.12-.07-.26-.1-.27-.16-.02-.09.03-.24.1-.28ZM71.82,64.94c-.25-.59-.26-.39.23-.7.13.61.2.43-.23.7ZM72.32,83.79c-.07-.2-.21-.42-.18-.6.04-.22.37-.11.46.18.12.4.17.29-.27.42ZM72.58,66.19c-.03-.38-.06-.61-.09-.97.38.13.63.22,1.12.38-.42.24-.67.38-1.03.59ZM76.79,75.17c-.48-.44,0-.85-.05-1.34,1.06.71.05,1.22.05,1.34ZM78.29,72.27c.7.05.5-.04.72.39-.5.21-.3.27-.72-.39ZM77.44,69.2s.01.01.02.02c.09,0,.47-.03,1.96-.13-.76.96-1.15.98-1.96.13-.04,0-.02,0-.02-.02ZM76.66,68.44c.2.06.41.13.55.27.12.12.19.44.22.5-.59-.08-.7.02-.95-.54-.02-.04.14-.24.18-.23ZM76.69,72.14c-.09.39.04.35-.43.27.13-.35.01-.28.43-.27ZM75.61,65.64c.4.13.35-.02.29.52-.4-.22-.29-.11-.29-.52Z"/>
      <path class="cls-1" d="M68.52,63.88c.07.25.07.55.15.79.04-.27.09-.54.13-.81-.16,0-.23,0-.26.01,0,0,0,.02-.01.02,0,0,0-.01,0-.01Z"/>
      <path class="cls-1" d="M8.51,63.7c-.39.52-.63.79-.87.82-.39,2.13-.68,4.28-.87,6.45,1.34-1.13.97-1.05,2.01-.68,1.51-15.05,7.98-29.19,18.23-40.17-.03-.04-.06-.08-.09-.14.18-.14.19-.22.32-.1,1.11-1.18,2.27-2.31,3.47-3.41-.13-.23-.17-.43-.07-.65.06-.13.49-.23.86-.06.58-.52,1.17-1.03,1.77-1.53-.01-.09-.03-.16-.04-.26.27-.14.6-.31,1-.52.21-.17.41-.34.62-.5,0,0,0,0,0-.01.04-.03.07-.05.11-.07.02-.02.04-.04.07-.05-.06-.02-.13-.04-.18-.07-.02-.01.02-.23.08-.26.07-.04.19.03.33.06,0,.04-.01.07-.02.11.35-.27.72-.53,1.08-.8-.03-.29.24-.52.39-.4.03.02.05.04.07.07,1.13-.82,2.28-1.62,3.47-2.37,0-.08.06-.1.32-.2,3.91-2.46,8.12-4.55,12.6-6.21-.03-.1.06-.12.39-.36.02.08.03.14.05.2.95-.34,1.9-.67,2.87-.97,7.82-2.46,15.76-3.43,23.51-3.09-.01-.06.06-.09.17-.18.06.07.11.13.17.2.18,0,.35.01.53.02,0-.18,0-.35,0-.52.47.09.96.31,1.37.22.4-.09.72-.51,1.05-.77-.07-.25-.13-.48-.19-.71-.57-.05-1.14-.09-1.72-.13,0,.02,0,.03,0,.06-.45.09-.43.14-.59-.09-.04,0-.09,0-.13,0-.03.03-.06.06-.09.09-.04-.03-.07-.07-.1-.1-.77-.04-1.55-.07-2.33-.08.04.05.09.11.12.19.14.06.28.16.43.33-.52.86-1.02.13-1.51.07.2-.2.41-.37.63-.43-.34-.01-.71.06-.94-.18-.42,0-.85,0-1.27.02.03,0,.05,0,.09.01-.1.75-.04.63-.28.61.03-.44.03-.58.07-.62-.33,0-.65.02-.98.03-.25.23-.6.37-.91.58-.03-.21-.06-.38-.09-.54-2.71.14-5.43.44-8.15.9-.1.87-.63,1.29-1.58,1.25.3-.38.58-.74.88-1.13-2.92.52-5.84,1.24-8.74,2.15-5.02,1.58-9.74,3.68-14.12,6.21-.05.05-.11.09-.19.11-4.8,2.79-9.18,6.11-13.1,9.85.1.15.21.33.38.58-.27-.11-.51-.19-.69-.29-.72.69-1.43,1.4-2.11,2.12.14-.05.28-.09.42-.14.02.07.07.19.06.19-.58.29-.57.29-.62.09-9.2,9.73-15.49,21.92-18.08,35.07.21-.06.41.03.69.16ZM58.7,10.03c-.17.08-.34.15-.51.22-.01,0-.1-.16-.1-.17.58-.39.47-.34.61-.05ZM50.95,13.51c-.41.21-.3.23-.45-.16.34-.13.24-.21.45.16ZM48.47,12.91c-.24,1.01-.77.95-1.29.9-.07-.32-.26-.15,1.29-.9ZM39.13,18.44c-.35.49-.15.48-.74.24.29-.4.1-.34.74-.24ZM28.81,27.55c0,.1.02.2-.01.29-.01.04-.17.08-.18.07-.06-.08-.09-.18-.15-.32.15-.02.24-.03.34-.04ZM26.09,29.3c.5.15.41.06.32.39-.49-.15-.43-.05-.32-.39ZM15.5,43.73c-.41.53-.29.49-.52.32.42-.52.3-.48.52-.32ZM14.83,44.54c.3.47.49.76.77,1.21-.5-.06-.83-.1-1.46-.17.27-.41.43-.64.69-1.03ZM10.26,58.46c.66.15.57.06.52.32-.68-.14-.58-.07-.52-.32ZM10.37,59.74c-.27-.26-.49-.48-.77-.76.73-.14.74.28.77.76Z"/>
      <path class="cls-1" d="M67.3,72c.19-.96.38-1.93.57-2.89-.22-.65-.43-1.26-1.06-1.68-.23,1.19-.47,2.38-.71,3.58.39.07.79.4,1.2,1ZM67.06,69.36c.07.1.1.28.06.38-.03.07-.27.14-.33.09-.08-.07-.08-.24-.15-.46.2-.01.38-.06.42-.01Z"/>
      <path class="cls-1" d="M114.17,105.89c-.17-.38-.21-.69-.36-.77-.05-.03-.1-.04-.15-.06-.16.21-.32.42-.49.63.28.06.58.12,1,.2Z"/>
      <path class="cls-1" d="M75.57,61.07c-.06-.05-.11-.1-.17-.16.03.07.07.13.1.2.02-.02.04-.03.07-.05Z"/>
      <path class="cls-1" d="M68.08,63.64s.48.3.44.23c0,0,0,0,0,0,0,0,0,0,.02,0,.08-.16.16-.32.27-.55.02.02.05.04.07.06.14-.83.29-1.64.49-2.41.29-1.13,1.22-1.72,2.36-1.34.32.25.63.51.94.77.1-.07.19-.14.16-.13,0,0,0,0,0,0,0,0,0,0,0-.02-.12-.13-.24-.27-.4-.46.2-.1.35-.18.7-.36-.21.58-.28.76-.3.82,0,0,.01.01.02.02,0,0-.01,0-.02,0,.53.07,1.11.46,1.46-.32.06.03.11.06.16.09-.5-.45-.99-.88-1.49-1.25-.11-.08-.23-.17-.36-.24-.37-.06-.43-.05-.4-.19-2.24-.82-3.79.64-4.24,2.74-.19.9-.35,1.81-.5,2.71.21.06.42.08.61-.16Z"/>
    </g>
  </g>
</svg>